{"glyphs":{"0":{"ha":400,"x_min":0,"x_max":0,"o":"m 199 1068 b 18 864 124 1068 18 1051 l 18 196 b 199 -8 18 8 124 -8 b 382 196 274 -8 382 7 l 382 864 b 199 1068 382 1053 274 1068 z m 201 132 b 182 172 189 132 182 144 l 182 851 b 199 926 182 915 188 926 b 218 851 211 926 218 915 l 218 172 b 201 132 218 144 213 132 z "},"1":{"ha":304,"x_min":0,"x_max":0,"o":"m 122 0 l 286 0 l 286 1056 l 139 1056 b 18 972 139 1010 88 972 l 18 843 l 122 843 z "},"2":{"ha":414,"x_min":0,"x_max":0,"o":"m 18 0 l 396 0 l 396 156 l 186 156 b 286 399 186 238 242 317 b 382 722 335 483 382 581 l 382 846 b 199 1071 382 1039 274 1071 b 18 846 124 1071 18 1038 l 18 653 l 182 653 l 182 850 b 201 890 182 878 189 890 b 218 850 213 890 218 878 l 218 743 b 154 483 218 639 189 556 b 18 164 96 364 18 281 z "},"3":{"ha":400,"x_min":0,"x_max":0,"o":"m 382 667 l 382 864 b 199 1071 382 1057 274 1071 b 18 864 124 1071 18 1054 l 18 671 l 182 671 l 182 886 b 201 926 182 913 189 926 b 218 886 213 926 218 913 l 218 744 b 179 599 218 654 225 599 l 138 599 l 138 443 l 179 443 b 218 297 225 443 218 388 l 218 174 b 201 133 218 146 213 133 b 182 174 189 133 182 146 l 182 388 l 18 388 l 18 194 b 199 -10 18 7 124 -10 b 382 194 274 -10 382 6 l 382 376 b 308 521 382 446 360 482 l 308 524 b 382 667 360 561 382 596 z "},"4":{"ha":450,"x_min":0,"x_max":0,"o":"m 231 0 l 396 0 l 396 160 l 432 160 l 432 315 l 396 315 l 396 1056 l 247 1056 l 18 332 l 18 160 l 231 160 z m 154 315 l 231 617 l 231 315 z "},"5":{"ha":400,"x_min":0,"x_max":0,"o":"m 199 -10 b 382 203 274 -10 382 6 l 382 553 b 268 769 382 688 356 769 b 163 710 222 769 186 749 l 157 710 l 157 903 l 365 903 l 365 1056 l 18 1056 l 18 472 l 182 472 b 201 628 182 592 182 628 b 218 550 222 628 218 592 l 218 174 b 201 133 218 146 213 133 b 182 174 189 133 182 146 l 182 388 l 18 388 l 18 203 b 199 -10 18 7 124 -10 z "},"6":{"ha":400,"x_min":0,"x_max":0,"o":"m 199 -10 b 382 199 274 -10 382 8 l 382 468 b 276 686 382 603 353 686 b 186 635 235 686 204 663 l 182 635 l 182 836 b 199 926 182 913 185 926 b 218 836 215 926 218 906 l 218 725 l 382 725 l 382 876 b 196 1071 382 1053 271 1071 b 18 849 104 1071 18 1038 l 18 199 b 199 -10 18 10 124 -10 z m 201 133 b 182 174 189 133 182 146 l 182 438 b 201 543 182 489 179 543 b 218 435 225 543 218 489 l 218 174 b 201 133 218 146 213 133 z "},"7":{"ha":431,"x_min":0,"x_max":0,"o":"m 413 1056 l 18 1056 l 18 903 l 289 903 b 81 0 149 608 81 319 l 228 0 b 413 886 228 244 285 540 z "},"8":{"ha":400,"x_min":0,"x_max":0,"o":"m 199 -10 b 382 200 274 -10 382 8 l 382 399 b 304 581 382 490 363 544 b 382 744 363 599 382 654 l 382 874 b 199 1071 382 1050 274 1071 b 18 874 124 1071 18 1047 l 18 744 b 93 581 18 654 38 599 b 18 399 38 544 18 490 l 18 200 b 199 -10 18 10 124 -10 z m 201 654 b 182 694 189 654 182 665 l 182 886 b 201 926 182 913 189 926 b 218 886 213 926 218 913 l 218 694 b 201 654 218 665 213 654 z m 201 132 b 182 172 189 132 182 144 l 182 467 b 201 507 182 493 189 507 b 218 467 213 507 218 493 l 218 172 b 201 132 218 144 213 132 z "},"9":{"ha":400,"x_min":0,"x_max":0,"o":"m 204 -10 b 382 210 296 -10 382 24 l 382 864 b 201 1071 382 1054 276 1071 b 18 864 126 1071 18 1057 l 18 540 b 124 356 18 406 47 356 b 214 408 165 356 196 379 l 218 408 l 218 224 b 203 133 218 150 215 133 b 182 224 185 133 182 150 l 182 317 l 18 317 l 18 183 b 204 -10 18 8 129 -10 z m 199 499 b 182 607 176 499 182 554 l 182 886 b 199 926 182 913 188 926 b 218 886 211 926 218 913 l 218 604 b 199 499 218 554 221 499 z "},"A":{"ha":449,"x_min":0,"x_max":0,"o":"m 253 0 l 444 0 l 333 1056 l 115 1056 l 4 0 l 196 0 b 203 158 199 53 200 106 l 246 158 b 253 0 249 106 250 53 z m 208 318 b 224 689 214 442 218 565 l 226 689 b 240 318 232 565 236 442 z "},"Á":{"ha":449,"x_min":0,"x_max":0,"o":"m 357 1278 l 185 1278 l 93 1106 l 188 1106 z m 253 0 l 444 0 l 333 1056 l 115 1056 l 4 0 l 196 0 b 203 158 199 53 200 106 l 246 158 b 253 0 249 106 250 53 z m 208 318 b 224 689 214 442 218 565 l 226 689 b 240 318 232 565 236 442 z "},"Ă":{"ha":449,"x_min":0,"x_max":0,"o":"m 225 1117 b 385 1264 324 1115 385 1172 l 286 1264 b 225 1199 286 1225 261 1199 b 163 1264 188 1199 163 1225 l 64 1264 b 225 1117 64 1174 125 1118 z m 253 0 l 444 0 l 333 1056 l 115 1056 l 4 0 l 196 0 b 203 158 199 53 200 106 l 246 158 b 253 0 249 106 250 53 z m 208 318 b 224 689 214 442 218 565 l 226 689 b 240 318 232 565 236 442 z "},"Â":{"ha":449,"x_min":0,"x_max":0,"o":"m 225 1188 l 296 1106 l 390 1106 l 299 1278 l 150 1278 l 58 1106 l 153 1106 z m 253 0 l 444 0 l 333 1056 l 115 1056 l 4 0 l 196 0 b 203 158 199 53 200 106 l 246 158 b 253 0 249 106 250 53 z m 208 318 b 224 689 214 442 218 565 l 226 689 b 240 318 232 565 236 442 z "},"Ä":{"ha":449,"x_min":0,"x_max":0,"o":"m 210 1210 l 92 1210 l 92 1089 l 210 1089 z m 357 1210 l 239 1210 l 239 1089 l 357 1089 z m 253 0 l 444 0 l 333 1056 l 115 1056 l 4 0 l 196 0 b 203 158 199 53 200 106 l 246 158 b 253 0 249 106 250 53 z m 208 318 b 224 689 214 442 218 565 l 226 689 b 240 318 232 565 236 442 z "},"À":{"ha":449,"x_min":0,"x_max":0,"o":"m 357 1106 l 265 1278 l 93 1278 l 263 1106 z m 253 0 l 444 0 l 333 1056 l 115 1056 l 4 0 l 196 0 b 203 158 199 53 200 106 l 246 158 b 253 0 249 106 250 53 z m 208 318 b 224 689 214 442 218 565 l 226 689 b 240 318 232 565 236 442 z "},"Ā":{"ha":449,"x_min":0,"x_max":0,"o":"m 357 1229 l 93 1229 l 93 1117 l 357 1117 z m 253 0 l 444 0 l 333 1056 l 115 1056 l 4 0 l 196 0 b 203 158 199 53 200 106 l 246 158 b 253 0 249 106 250 53 z m 208 318 b 224 689 214 442 218 565 l 226 689 b 240 318 232 565 236 442 z "},"Ą":{"ha":449,"x_min":0,"x_max":0,"o":"m 404 0 l 444 0 l 333 1056 l 115 1056 l 4 0 l 196 0 b 203 158 199 53 200 106 l 246 158 b 253 0 249 106 250 53 l 340 0 b 211 -172 264 -43 211 -97 b 386 -304 211 -257 267 -304 l 386 -206 b 303 -144 329 -206 303 -181 b 404 0 303 -107 340 -50 z m 208 318 b 224 689 214 442 218 565 l 226 689 b 240 318 232 565 236 442 z "},"Å":{"ha":449,"x_min":0,"x_max":0,"o":"m 225 1096 b 322 1194 283 1097 322 1136 b 225 1293 322 1253 283 1292 b 126 1194 165 1292 126 1253 b 225 1096 126 1136 165 1097 z m 225 1232 b 258 1194 244 1232 258 1217 b 225 1157 258 1172 244 1157 b 190 1194 204 1157 190 1172 b 225 1232 190 1217 204 1232 z m 253 0 l 444 0 l 333 1056 l 115 1056 l 4 0 l 196 0 b 203 158 199 53 200 106 l 246 158 b 253 0 249 106 250 53 z m 208 318 b 224 689 214 442 218 565 l 226 689 b 240 318 232 565 236 442 z "},"Ã":{"ha":449,"x_min":0,"x_max":0,"o":"m 158 1128 b 182 1157 158 1143 167 1157 b 293 1114 210 1157 235 1114 b 374 1228 357 1114 374 1165 l 374 1242 l 292 1242 l 292 1231 b 265 1204 292 1217 283 1204 b 158 1243 235 1204 214 1243 b 76 1131 94 1243 76 1192 l 76 1117 l 158 1117 z m 253 0 l 444 0 l 333 1056 l 115 1056 l 4 0 l 196 0 b 203 158 199 53 200 106 l 246 158 b 253 0 249 106 250 53 z m 208 318 b 224 689 214 442 218 565 l 226 689 b 240 318 232 565 236 442 z "},"Æ":{"ha":574,"x_min":0,"x_max":0,"o":"m 415 160 l 415 483 l 515 483 l 515 643 l 415 643 l 415 896 l 538 896 l 538 1056 l 129 1056 l 4 0 l 196 0 l 204 158 l 240 158 l 240 0 l 553 0 l 553 160 z m 238 689 l 240 689 l 240 318 l 215 318 b 238 689 224 442 232 565 z "},"Ǽ":{"ha":574,"x_min":0,"x_max":0,"o":"m 250 1106 l 419 1278 l 247 1278 l 156 1106 z m 415 160 l 415 483 l 515 483 l 515 643 l 415 643 l 415 896 l 538 896 l 538 1056 l 129 1056 l 4 0 l 196 0 l 204 158 l 240 158 l 240 0 l 553 0 l 553 160 z m 238 689 l 240 689 l 240 318 l 215 318 b 238 689 224 442 232 565 z "},"B":{"ha":418,"x_min":0,"x_max":0,"o":"m 21 0 l 210 0 b 400 214 328 0 400 46 l 400 401 b 326 550 400 476 371 519 b 400 703 371 583 400 628 l 400 854 b 210 1056 400 996 328 1056 l 21 1056 z m 193 611 l 193 897 l 206 897 b 228 858 225 897 228 885 l 228 653 b 206 611 228 626 226 611 z m 193 158 l 193 501 l 206 501 b 228 468 225 501 228 489 l 228 196 b 206 158 228 169 226 158 z "},"C":{"ha":415,"x_min":0,"x_max":0,"o":"m 397 549 l 397 843 b 207 1071 397 1025 325 1071 b 18 843 86 1071 18 1024 l 18 217 b 207 -10 18 38 86 -10 b 397 217 325 -10 397 36 l 397 517 l 225 517 l 225 199 b 208 160 225 172 222 160 b 190 199 193 160 190 172 l 190 861 b 208 901 190 888 193 901 b 225 861 222 901 225 888 l 225 549 z "},"Ć":{"ha":415,"x_min":0,"x_max":0,"o":"m 171 1106 l 340 1278 l 168 1278 l 76 1106 z m 397 549 l 397 843 b 207 1071 397 1025 325 1071 b 18 843 86 1071 18 1024 l 18 217 b 207 -10 18 38 86 -10 b 397 217 325 -10 397 36 l 397 517 l 225 517 l 225 199 b 208 160 225 172 222 160 b 190 199 193 160 190 172 l 190 861 b 208 901 190 888 193 901 b 225 861 222 901 225 888 l 225 549 z "},"Č":{"ha":415,"x_min":0,"x_max":0,"o":"m 383 1292 l 289 1292 l 218 1210 l 146 1292 l 51 1292 l 143 1119 l 292 1119 z m 397 549 l 397 843 b 207 1071 397 1025 325 1071 b 18 843 86 1071 18 1024 l 18 217 b 207 -10 18 38 86 -10 b 397 217 325 -10 397 36 l 397 517 l 225 517 l 225 199 b 208 160 225 172 222 160 b 190 199 193 160 190 172 l 190 861 b 208 901 190 888 193 901 b 225 861 222 901 225 888 l 225 549 z "},"Ç":{"ha":415,"x_min":0,"x_max":0,"o":"m 397 549 l 397 843 b 207 1071 397 1025 325 1071 b 18 843 86 1071 18 1024 l 18 217 b 150 -6 18 68 65 10 l 82 -164 l 229 -164 l 257 -7 b 397 217 344 7 397 63 l 397 517 l 225 517 l 225 199 b 208 160 225 172 222 160 b 190 199 193 160 190 172 l 190 861 b 208 901 190 888 193 901 b 225 861 222 901 225 888 l 225 549 z "},"Ċ":{"ha":415,"x_min":0,"x_max":0,"o":"m 119 1246 l 119 1089 l 296 1089 l 296 1246 z m 397 549 l 397 843 b 207 1071 397 1025 325 1071 b 18 843 86 1071 18 1024 l 18 217 b 207 -10 18 38 86 -10 b 397 217 325 -10 397 36 l 397 517 l 225 517 l 225 199 b 208 160 225 172 222 160 b 190 199 193 160 190 172 l 190 861 b 208 901 190 888 193 901 b 225 861 222 901 225 888 l 225 549 z "},"D":{"ha":418,"x_min":0,"x_max":0,"o":"m 210 1056 l 21 1056 l 21 0 l 210 0 b 400 158 328 0 400 74 l 400 896 b 210 1056 400 982 328 1056 z m 210 158 l 193 158 l 193 897 l 210 897 b 228 858 225 897 228 885 l 228 196 b 210 158 228 169 226 158 z "},"Ð":{"ha":418,"x_min":0,"x_max":0,"o":"m 210 1056 l 21 1056 l 21 643 l -7 643 l -7 483 l 21 483 l 21 0 l 210 0 b 400 228 328 0 400 74 l 400 826 b 210 1056 400 982 328 1056 z m 228 196 b 210 158 228 169 226 158 l 193 158 l 193 483 l 215 483 l 215 643 l 193 643 l 193 897 l 210 897 b 228 858 225 897 228 885 z "},"Ď":{"ha":418,"x_min":0,"x_max":0,"o":"m 385 1292 l 290 1292 l 219 1210 l 147 1292 l 53 1292 l 144 1119 l 293 1119 z m 210 1056 l 21 1056 l 21 0 l 210 0 b 400 158 328 0 400 74 l 400 896 b 210 1056 400 982 328 1056 z m 210 158 l 193 158 l 193 897 l 210 897 b 228 858 225 897 228 885 l 228 196 b 210 158 228 169 226 158 z "},"Đ":{"ha":418,"x_min":0,"x_max":0,"o":"m 210 1056 l 21 1056 l 21 643 l -7 643 l -7 483 l 21 483 l 21 0 l 210 0 b 400 228 328 0 400 74 l 400 826 b 210 1056 400 982 328 1056 z m 228 196 b 210 158 228 169 226 158 l 193 158 l 193 483 l 215 483 l 215 643 l 193 643 l 193 897 l 210 897 b 228 858 225 897 228 885 z "},"E":{"ha":354,"x_min":0,"x_max":0,"o":"m 196 160 l 196 483 l 296 483 l 296 643 l 196 643 l 196 896 l 318 896 l 318 1056 l 21 1056 l 21 0 l 333 0 l 333 160 z "},"É":{"ha":354,"x_min":0,"x_max":0,"o":"m 310 1278 l 138 1278 l 46 1106 l 140 1106 z m 196 160 l 196 483 l 296 483 l 296 643 l 196 643 l 196 896 l 318 896 l 318 1056 l 21 1056 l 21 0 l 333 0 l 333 160 z "},"Ě":{"ha":354,"x_min":0,"x_max":0,"o":"m 261 1119 l 353 1292 l 258 1292 l 188 1210 l 115 1292 l 21 1292 l 113 1119 z m 196 483 l 296 483 l 296 643 l 196 643 l 196 896 l 318 896 l 318 1056 l 21 1056 l 21 0 l 333 0 l 333 160 l 196 160 z "},"Ê":{"ha":354,"x_min":0,"x_max":0,"o":"m 178 1188 l 249 1106 l 343 1106 l 251 1278 l 103 1278 l 11 1106 l 106 1106 z m 196 483 l 296 483 l 296 643 l 196 643 l 196 896 l 318 896 l 318 1056 l 21 1056 l 21 0 l 333 0 l 333 160 l 196 160 z "},"Ë":{"ha":354,"x_min":0,"x_max":0,"o":"m 163 1210 l 44 1210 l 44 1089 l 163 1089 z m 310 1210 l 192 1210 l 192 1089 l 310 1089 z m 196 160 l 196 483 l 296 483 l 296 643 l 196 643 l 196 896 l 318 896 l 318 1056 l 21 1056 l 21 0 l 333 0 l 333 160 z "},"Ė":{"ha":354,"x_min":0,"x_max":0,"o":"m 265 1246 l 89 1246 l 89 1089 l 265 1089 z m 196 160 l 196 483 l 296 483 l 296 643 l 196 643 l 196 896 l 318 896 l 318 1056 l 21 1056 l 21 0 l 333 0 l 333 160 z "},"È":{"ha":354,"x_min":0,"x_max":0,"o":"m 310 1106 l 218 1278 l 46 1278 l 215 1106 z m 196 160 l 196 483 l 296 483 l 296 643 l 196 643 l 196 896 l 318 896 l 318 1056 l 21 1056 l 21 0 l 333 0 l 333 160 z "},"Ē":{"ha":354,"x_min":0,"x_max":0,"o":"m 310 1229 l 46 1229 l 46 1117 l 310 1117 z m 196 160 l 196 483 l 296 483 l 296 643 l 196 643 l 196 896 l 318 896 l 318 1056 l 21 1056 l 21 0 l 333 0 l 333 160 z "},"Ę":{"ha":354,"x_min":0,"x_max":0,"o":"m 196 160 l 196 483 l 296 483 l 296 643 l 196 643 l 196 896 l 318 896 l 318 1056 l 21 1056 l 21 0 l 254 0 b 125 -172 178 -43 125 -97 b 300 -304 125 -257 181 -304 l 300 -206 b 217 -144 243 -206 217 -181 b 318 0 217 -107 254 -50 l 333 0 l 333 160 z "},"F":{"ha":324,"x_min":0,"x_max":0,"o":"m 318 896 l 318 1056 l 21 1056 l 21 0 l 196 0 l 196 483 l 296 483 l 296 643 l 196 643 l 196 896 z "},"G":{"ha":418,"x_min":0,"x_max":0,"o":"m 181 -10 b 282 61 228 -10 268 11 l 285 61 l 292 0 l 400 0 l 400 583 l 228 583 l 228 424 l 319 424 l 228 351 l 228 199 b 211 160 228 171 226 160 b 193 199 194 160 193 171 l 193 861 b 211 900 193 886 196 900 b 228 861 225 900 228 886 l 228 615 l 400 615 l 400 843 b 210 1071 400 1024 328 1071 b 21 843 89 1071 21 1022 l 21 217 b 181 -10 21 38 90 -10 z "},"Ğ":{"ha":418,"x_min":0,"x_max":0,"o":"m 271 1264 b 210 1199 271 1225 246 1199 b 147 1264 172 1199 147 1225 l 49 1264 b 210 1117 49 1174 110 1118 b 369 1264 308 1115 369 1172 z m 181 -10 b 282 61 228 -10 268 11 l 285 61 l 292 0 l 400 0 l 400 583 l 228 583 l 228 424 l 319 424 l 228 351 l 228 199 b 211 160 228 171 226 160 b 193 199 194 160 193 171 l 193 861 b 211 900 193 886 196 900 b 228 861 225 900 228 886 l 228 615 l 400 615 l 400 843 b 210 1071 400 1024 328 1071 b 21 843 89 1071 21 1022 l 21 217 b 181 -10 21 38 90 -10 z "},"Ģ":{"ha":418,"x_min":0,"x_max":0,"o":"m 400 615 l 400 843 b 210 1071 400 1024 328 1071 b 21 843 89 1071 21 1022 l 21 217 b 181 -10 21 38 90 -10 b 282 61 228 -10 268 11 l 285 61 l 292 0 l 400 0 l 400 583 l 228 583 l 228 424 l 319 424 l 228 351 l 228 199 b 211 160 228 171 226 160 b 193 199 194 160 193 171 l 193 861 b 211 900 193 886 196 900 b 228 861 225 900 228 886 l 228 615 z m 131 -194 l 196 -194 l 132 -367 l 215 -367 l 288 -206 l 288 -22 l 131 -22 z "},"Ġ":{"ha":418,"x_min":0,"x_max":0,"o":"m 121 1246 l 121 1089 l 297 1089 l 297 1246 z m 181 -10 b 282 61 228 -10 268 11 l 285 61 l 292 0 l 400 0 l 400 583 l 228 583 l 228 424 l 319 424 l 228 351 l 228 199 b 211 160 228 171 226 160 b 193 199 194 160 193 171 l 193 861 b 211 900 193 886 196 900 b 228 861 225 900 228 886 l 228 615 l 400 615 l 400 843 b 210 1071 400 1024 328 1071 b 21 843 89 1071 21 1022 l 21 217 b 181 -10 21 38 90 -10 z "},"H":{"ha":418,"x_min":0,"x_max":0,"o":"m 222 1056 l 222 596 l 196 596 l 196 1056 l 21 1056 l 21 0 l 196 0 l 196 436 l 222 436 l 222 0 l 397 0 l 397 1056 z "},"Ħ":{"ha":418,"x_min":0,"x_max":0,"o":"m 432 874 l 397 874 l 397 1056 l 222 1056 l 222 874 l 196 874 l 196 1056 l 21 1056 l 21 874 l -14 874 l -14 736 l 21 736 l 21 0 l 196 0 l 196 436 l 222 436 l 222 0 l 397 0 l 397 736 l 432 736 z m 222 596 l 196 596 l 196 736 l 222 736 z "},"I":{"ha":217,"x_min":0,"x_max":0,"o":"m 21 1056 l 21 0 l 196 0 l 196 1056 z "},"Í":{"ha":217,"x_min":0,"x_max":0,"o":"m 71 1106 l 240 1278 l 68 1278 l -24 1106 z m 21 1056 l 21 0 l 196 0 l 196 1056 z "},"Î":{"ha":217,"x_min":0,"x_max":0,"o":"m 274 1106 l 182 1278 l 33 1278 l -58 1106 l 36 1106 l 108 1188 l 179 1106 z m 21 1056 l 21 0 l 196 0 l 196 1056 z "},"Ï":{"ha":217,"x_min":0,"x_max":0,"o":"m -25 1210 l -25 1089 l 93 1089 l 93 1210 z m 122 1210 l 122 1089 l 240 1089 l 240 1210 z m 21 1056 l 21 0 l 196 0 l 196 1056 z "},"İ":{"ha":217,"x_min":0,"x_max":0,"o":"m 19 1246 l 19 1089 l 196 1089 l 196 1246 z m 21 1056 l 21 0 l 196 0 l 196 1056 z "},"Ì":{"ha":217,"x_min":0,"x_max":0,"o":"m 146 1106 l 240 1106 l 149 1278 l -24 1278 z m 21 1056 l 21 0 l 196 0 l 196 1056 z "},"Ī":{"ha":217,"x_min":0,"x_max":0,"o":"m -24 1229 l -24 1117 l 240 1117 l 240 1229 z m 21 1056 l 21 0 l 196 0 l 196 1056 z "},"Į":{"ha":217,"x_min":0,"x_max":0,"o":"m 21 1056 l 21 0 l 131 0 b 1 -172 54 -43 1 -97 b 176 -304 1 -257 57 -304 l 176 -206 b 93 -144 119 -206 93 -181 b 194 0 93 -107 131 -50 l 196 0 l 196 1056 z "},"J":{"ha":403,"x_min":0,"x_max":0,"o":"m 193 -10 b 382 217 313 -10 382 38 l 382 1056 l 210 1056 l 210 213 b 192 174 210 186 207 174 b 175 213 179 174 175 186 l 175 356 l 3 356 l 3 217 b 193 -10 3 36 75 -10 z "},"K":{"ha":433,"x_min":0,"x_max":0,"o":"m 429 1056 l 238 1056 l 196 651 l 196 1056 l 21 1056 l 21 0 l 196 0 l 196 392 l 222 0 l 414 0 l 346 532 z "},"Ķ":{"ha":433,"x_min":0,"x_max":0,"o":"m 429 1056 l 238 1056 l 196 651 l 196 1056 l 21 1056 l 21 0 l 196 0 l 196 392 l 222 0 l 414 0 l 346 532 z m 138 -194 l 203 -194 l 139 -367 l 222 -367 l 294 -206 l 294 -22 l 138 -22 z "},"L":{"ha":347,"x_min":0,"x_max":0,"o":"m 197 160 l 197 1056 l 21 1056 l 21 0 l 340 0 l 340 160 z "},"Ĺ":{"ha":347,"x_min":0,"x_max":0,"o":"m 306 1278 l 133 1278 l 42 1106 l 136 1106 z m 197 160 l 197 1056 l 21 1056 l 21 0 l 340 0 l 340 160 z "},"Ľ":{"ha":385,"x_min":0,"x_max":0,"o":"m 197 1056 l 21 1056 l 21 0 l 340 0 l 340 160 l 197 160 z m 228 1056 l 228 883 l 293 883 l 229 711 l 313 711 l 385 872 l 385 1056 z "},"Ļ":{"ha":347,"x_min":0,"x_max":0,"o":"m 197 160 l 197 1056 l 21 1056 l 21 0 l 340 0 l 340 160 z m 94 -194 l 160 -194 l 96 -367 l 179 -367 l 251 -206 l 251 -22 l 94 -22 z "},"Ł":{"ha":347,"x_min":0,"x_max":0,"o":"m 197 160 l 197 518 l 257 553 l 257 724 l 197 688 l 197 1056 l 21 1056 l 21 583 l -31 553 l -31 386 l 21 415 l 21 0 l 340 0 l 340 160 z "},"M":{"ha":531,"x_min":0,"x_max":0,"o":"m 21 0 l 181 0 l 181 532 l 188 532 l 221 0 l 310 0 l 343 532 l 350 532 l 350 0 l 510 0 l 510 1056 l 333 1056 b 269 543 313 885 290 714 l 260 543 b 196 1056 240 714 217 885 l 21 1056 z "},"N":{"ha":418,"x_min":0,"x_max":0,"o":"m 224 1056 l 224 614 l 221 614 b 182 1056 208 779 194 904 l 21 1056 l 21 0 l 194 0 l 194 390 l 197 390 b 240 0 211 242 226 135 l 397 0 l 397 1056 z "},"Ń":{"ha":418,"x_min":0,"x_max":0,"o":"m 172 1106 l 342 1278 l 169 1278 l 78 1106 z m 224 1056 l 224 614 l 221 614 b 182 1056 208 779 194 904 l 21 1056 l 21 0 l 194 0 l 194 390 l 197 390 b 240 0 211 242 226 135 l 397 0 l 397 1056 z "},"Ň":{"ha":418,"x_min":0,"x_max":0,"o":"m 385 1292 l 290 1292 l 219 1210 l 147 1292 l 53 1292 l 144 1119 l 293 1119 z m 224 1056 l 224 614 l 221 614 b 182 1056 208 779 194 904 l 21 1056 l 21 0 l 194 0 l 194 390 l 197 390 b 240 0 211 242 226 135 l 397 0 l 397 1056 z "},"Ņ":{"ha":418,"x_min":0,"x_max":0,"o":"m 224 1056 l 224 614 l 221 614 b 182 1056 208 779 194 904 l 21 1056 l 21 0 l 194 0 l 194 390 l 197 390 b 240 0 211 242 226 135 l 397 0 l 397 1056 z m 131 -194 l 196 -194 l 132 -367 l 215 -367 l 288 -206 l 288 -22 l 131 -22 z "},"Ŋ":{"ha":418,"x_min":0,"x_max":0,"o":"m 224 1056 l 224 614 l 221 614 b 182 1056 208 779 194 904 l 21 1056 l 21 0 l 194 0 l 194 390 l 197 390 b 225 138 206 294 215 217 l 225 -36 b 167 -122 225 -108 232 -122 l 138 -122 l 139 -306 l 172 -306 b 397 -93 336 -306 397 -261 l 397 1056 z "},"Ñ":{"ha":418,"x_min":0,"x_max":0,"o":"m 276 1242 l 276 1231 b 250 1204 276 1217 268 1204 b 143 1243 219 1204 199 1243 b 61 1131 79 1243 61 1192 l 61 1117 l 143 1117 l 143 1128 b 167 1157 143 1143 151 1157 b 278 1114 194 1157 219 1114 b 358 1228 342 1114 358 1165 l 358 1242 z m 224 1056 l 224 614 l 221 614 b 182 1056 208 779 194 904 l 21 1056 l 21 0 l 194 0 l 194 390 l 197 390 b 240 0 211 242 226 135 l 397 0 l 397 1056 z "},"O":{"ha":415,"x_min":0,"x_max":0,"o":"m 207 1071 b 18 844 86 1071 18 1024 l 18 217 b 207 -10 18 38 86 -10 b 397 217 325 -10 397 36 l 397 844 b 207 1071 397 1025 325 1071 z m 208 160 b 190 199 192 160 190 171 l 190 863 b 208 901 190 888 193 901 b 225 863 222 901 225 888 l 225 199 b 208 160 225 171 224 160 z "},"Ó":{"ha":415,"x_min":0,"x_max":0,"o":"m 171 1106 l 340 1278 l 168 1278 l 76 1106 z m 207 1071 b 18 844 86 1071 18 1024 l 18 217 b 207 -10 18 38 86 -10 b 397 217 325 -10 397 36 l 397 844 b 207 1071 397 1025 325 1071 z m 208 160 b 190 199 192 160 190 171 l 190 863 b 208 901 190 888 193 901 b 225 863 222 901 225 888 l 225 199 b 208 160 225 171 224 160 z "},"Ô":{"ha":415,"x_min":0,"x_max":0,"o":"m 374 1106 l 282 1278 l 133 1278 l 42 1106 l 136 1106 l 208 1188 l 279 1106 z m 207 1071 b 18 844 86 1071 18 1024 l 18 217 b 207 -10 18 38 86 -10 b 397 217 325 -10 397 36 l 397 844 b 207 1071 397 1025 325 1071 z m 208 160 b 190 199 192 160 190 171 l 190 863 b 208 901 190 888 193 901 b 225 863 222 901 225 888 l 225 199 b 208 160 225 171 224 160 z "},"Ö":{"ha":415,"x_min":0,"x_max":0,"o":"m 75 1210 l 75 1089 l 193 1089 l 193 1210 z m 222 1210 l 222 1089 l 340 1089 l 340 1210 z m 207 1071 b 18 844 86 1071 18 1024 l 18 217 b 207 -10 18 38 86 -10 b 397 217 325 -10 397 36 l 397 844 b 207 1071 397 1025 325 1071 z m 208 160 b 190 199 192 160 190 171 l 190 863 b 208 901 190 888 193 901 b 225 863 222 901 225 888 l 225 199 b 208 160 225 171 224 160 z "},"Ò":{"ha":415,"x_min":0,"x_max":0,"o":"m 246 1106 l 340 1106 l 249 1278 l 76 1278 z m 207 1071 b 18 844 86 1071 18 1024 l 18 217 b 207 -10 18 38 86 -10 b 397 217 325 -10 397 36 l 397 844 b 207 1071 397 1025 325 1071 z m 208 160 b 190 199 192 160 190 171 l 190 863 b 208 901 190 888 193 901 b 225 863 222 901 225 888 l 225 199 b 208 160 225 171 224 160 z "},"Ő":{"ha":415,"x_min":0,"x_max":0,"o":"m 88 1106 l 257 1278 l 85 1278 l -7 1106 z m 268 1106 l 438 1278 l 265 1278 l 174 1106 z m 207 1071 b 18 844 86 1071 18 1024 l 18 217 b 207 -10 18 38 86 -10 b 397 217 325 -10 397 36 l 397 844 b 207 1071 397 1025 325 1071 z m 208 160 b 190 199 192 160 190 171 l 190 863 b 208 901 190 888 193 901 b 225 863 222 901 225 888 l 225 199 b 208 160 225 171 224 160 z "},"Ō":{"ha":415,"x_min":0,"x_max":0,"o":"m 76 1229 l 76 1117 l 340 1117 l 340 1229 z m 207 1071 b 18 844 86 1071 18 1024 l 18 217 b 207 -10 18 38 86 -10 b 397 217 325 -10 397 36 l 397 844 b 207 1071 397 1025 325 1071 z m 208 160 b 190 199 192 160 190 171 l 190 863 b 208 901 190 888 193 901 b 225 863 222 901 225 888 l 225 199 b 208 160 225 171 224 160 z "},"Ø":{"ha":415,"x_min":0,"x_max":0,"o":"m 418 1054 l 361 1054 l 350 1022 b 207 1071 317 1058 268 1071 b 18 844 86 1071 18 1024 l 18 217 b 32 101 18 169 22 131 l -3 0 l 54 0 l 67 36 b 207 -10 99 3 146 -10 b 397 217 325 -10 397 36 l 397 844 b 385 956 397 889 393 926 z m 190 863 b 208 901 190 888 193 901 b 225 863 222 901 225 888 l 225 660 l 190 560 z m 225 199 b 208 160 225 171 224 160 b 190 199 192 160 190 171 l 190 394 l 225 494 z "},"Õ":{"ha":415,"x_min":0,"x_max":0,"o":"m 275 1242 l 275 1231 b 249 1204 275 1217 267 1204 b 142 1243 218 1204 197 1243 b 60 1131 78 1243 60 1192 l 60 1117 l 142 1117 l 142 1128 b 165 1157 142 1143 150 1157 b 276 1114 193 1157 218 1114 b 357 1228 340 1114 357 1165 l 357 1242 z m 207 1071 b 18 844 86 1071 18 1024 l 18 217 b 207 -10 18 38 86 -10 b 397 217 325 -10 397 36 l 397 844 b 207 1071 397 1025 325 1071 z m 208 160 b 190 199 192 160 190 171 l 190 863 b 208 901 190 888 193 901 b 225 863 222 901 225 888 l 225 199 b 208 160 225 171 224 160 z "},"Œ":{"ha":558,"x_min":0,"x_max":0,"o":"m 400 160 l 400 483 l 500 483 l 500 643 l 400 643 l 400 896 l 522 896 l 522 1056 l 225 1056 l 225 1044 b 158 1064 201 1057 179 1064 b 18 844 92 1064 18 1015 l 18 217 b 158 -7 18 40 92 -7 b 225 11 178 -7 201 -1 l 225 0 l 538 0 l 538 160 z m 208 160 b 190 199 192 160 190 171 l 190 863 b 208 901 190 888 193 901 b 225 863 222 901 225 888 l 225 199 b 208 160 225 171 224 160 z "},"P":{"ha":418,"x_min":0,"x_max":0,"o":"m 204 1056 l 21 1056 l 21 0 l 196 0 l 194 431 l 210 431 b 400 624 333 431 400 489 l 400 864 b 204 1056 400 996 329 1056 z m 228 628 b 206 589 228 600 226 589 l 193 589 l 193 897 l 206 897 b 228 858 225 897 228 885 z "},"Þ":{"ha":418,"x_min":0,"x_max":0,"o":"m 204 847 l 193 847 l 192 1056 l 21 1056 l 21 0 l 196 0 l 194 222 l 210 222 b 400 451 333 222 400 296 l 400 618 b 204 847 400 774 329 847 z m 228 419 b 206 381 228 392 226 381 l 194 381 l 193 689 l 206 689 b 228 650 225 689 228 676 z "},"Q":{"ha":415,"x_min":0,"x_max":0,"o":"m 397 217 l 397 844 b 207 1071 397 1025 325 1071 b 18 844 86 1071 18 1024 l 18 217 b 157 -7 18 64 67 7 l 189 -162 l 357 -160 l 300 6 b 397 217 361 29 397 90 z m 190 863 b 208 901 190 888 193 901 b 225 863 222 901 225 888 l 225 199 b 208 160 225 171 224 160 b 190 199 192 160 190 171 z "},"R":{"ha":432,"x_min":0,"x_max":0,"o":"m 21 0 l 194 0 l 194 408 b 213 440 194 432 199 440 b 232 408 228 440 232 432 l 232 126 b 242 0 232 35 235 17 l 411 0 l 411 13 b 401 65 403 19 401 28 l 401 407 b 310 536 401 494 354 536 l 306 536 l 306 539 l 310 539 b 401 689 354 539 401 625 l 401 868 b 221 1056 401 976 339 1056 l 21 1056 z m 194 613 l 194 897 l 210 897 b 231 858 225 897 231 885 l 231 651 b 210 613 231 624 225 613 z "},"Ŕ":{"ha":432,"x_min":0,"x_max":0,"o":"m 179 1106 l 349 1278 l 176 1278 l 85 1106 z m 21 0 l 194 0 l 194 408 b 213 440 194 432 199 440 b 232 408 228 440 232 432 l 232 126 b 242 0 232 35 235 17 l 411 0 l 411 13 b 401 65 403 19 401 28 l 401 407 b 310 536 401 494 354 536 l 306 536 l 306 539 l 310 539 b 401 689 354 539 401 625 l 401 868 b 221 1056 401 976 339 1056 l 21 1056 z m 194 613 l 194 897 l 210 897 b 231 858 225 897 231 885 l 231 651 b 210 613 231 624 225 613 z "},"Ř":{"ha":432,"x_min":0,"x_max":0,"o":"m 392 1292 l 297 1292 l 226 1210 l 154 1292 l 60 1292 l 151 1119 l 300 1119 z m 21 0 l 194 0 l 194 408 b 213 440 194 432 199 440 b 232 408 228 440 232 432 l 232 126 b 242 0 232 35 235 17 l 411 0 l 411 13 b 401 65 403 19 401 28 l 401 407 b 310 536 401 494 354 536 l 306 536 l 306 539 l 310 539 b 401 689 354 539 401 625 l 401 868 b 221 1056 401 976 339 1056 l 21 1056 z m 194 613 l 194 897 l 210 897 b 231 858 225 897 231 885 l 231 651 b 210 613 231 624 225 613 z "},"Ŗ":{"ha":432,"x_min":0,"x_max":0,"o":"m 401 65 l 401 407 b 310 536 401 494 354 536 l 306 536 l 306 539 l 310 539 b 401 689 354 539 401 625 l 401 868 b 221 1056 401 976 339 1056 l 21 1056 l 21 0 l 194 0 l 194 408 b 213 440 194 432 199 440 b 232 408 228 440 232 432 l 232 126 b 242 0 232 35 235 17 l 411 0 l 411 13 b 401 65 403 19 401 28 z m 231 651 b 210 613 231 624 225 613 l 194 613 l 194 897 l 210 897 b 231 858 225 897 231 885 z m 138 -194 l 203 -194 l 139 -367 l 222 -367 l 294 -206 l 294 -22 l 138 -22 z "},"S":{"ha":415,"x_min":0,"x_max":0,"o":"m 397 676 l 397 846 b 207 1071 397 1025 325 1071 b 18 846 86 1071 18 1024 l 18 696 b 122 501 18 601 69 549 b 225 342 169 458 225 411 l 225 201 b 208 160 225 167 221 160 b 190 201 193 160 190 167 l 190 385 l 18 385 l 18 217 b 207 -10 18 35 90 -10 b 397 217 328 -10 397 35 l 397 318 b 285 583 397 481 379 494 b 190 726 238 628 190 672 l 190 850 b 208 901 190 878 190 901 b 225 850 225 901 225 878 l 225 676 z "},"Ś":{"ha":415,"x_min":0,"x_max":0,"o":"m 171 1106 l 340 1278 l 168 1278 l 76 1106 z m 397 676 l 397 846 b 207 1071 397 1025 325 1071 b 18 846 86 1071 18 1024 l 18 696 b 122 501 18 601 69 549 b 225 342 169 458 225 411 l 225 201 b 208 160 225 167 221 160 b 190 201 193 160 190 167 l 190 385 l 18 385 l 18 217 b 207 -10 18 35 90 -10 b 397 217 328 -10 397 35 l 397 318 b 285 583 397 481 379 494 b 190 726 238 628 190 672 l 190 850 b 208 901 190 878 190 901 b 225 850 225 901 225 878 l 225 676 z "},"Š":{"ha":415,"x_min":0,"x_max":0,"o":"m 383 1292 l 289 1292 l 218 1210 l 146 1292 l 51 1292 l 143 1119 l 292 1119 z m 397 676 l 397 846 b 207 1071 397 1025 325 1071 b 18 846 86 1071 18 1024 l 18 696 b 122 501 18 601 69 549 b 225 342 169 458 225 411 l 225 201 b 208 160 225 167 221 160 b 190 201 193 160 190 167 l 190 385 l 18 385 l 18 217 b 207 -10 18 35 90 -10 b 397 217 328 -10 397 35 l 397 318 b 285 583 397 481 379 494 b 190 726 238 628 190 672 l 190 850 b 208 901 190 878 190 901 b 225 850 225 901 225 878 l 225 676 z "},"Ş":{"ha":415,"x_min":0,"x_max":0,"o":"m 397 676 l 397 846 b 207 1071 397 1025 325 1071 b 18 846 86 1071 18 1024 l 18 696 b 122 501 18 601 69 549 b 225 342 169 458 225 411 l 225 201 b 208 160 225 167 221 160 b 190 201 193 160 190 167 l 190 385 l 18 385 l 18 217 b 150 -6 18 67 67 10 l 82 -164 l 229 -164 l 257 -7 b 397 217 347 6 397 61 l 397 318 b 285 583 397 481 379 494 b 190 726 238 628 190 672 l 190 850 b 208 901 190 878 190 901 b 225 850 225 901 225 878 l 225 676 z "},"Ș":{"ha":415,"x_min":0,"x_max":0,"o":"m 397 676 l 397 846 b 207 1071 397 1025 325 1071 b 18 846 86 1071 18 1024 l 18 696 b 122 501 18 601 69 549 b 225 342 169 458 225 411 l 225 201 b 208 160 225 167 221 160 b 190 201 193 160 190 167 l 190 385 l 18 385 l 18 217 b 207 -10 18 35 90 -10 b 397 217 328 -10 397 35 l 397 318 b 285 583 397 481 379 494 b 190 726 238 628 190 672 l 190 850 b 208 901 190 878 190 901 b 225 850 225 901 225 878 l 225 676 z m 129 -194 l 194 -194 l 131 -367 l 214 -367 l 286 -206 l 286 -22 l 129 -22 z "},"T":{"ha":419,"x_min":0,"x_max":0,"o":"m 414 1056 l 6 1056 l 6 896 l 122 896 l 122 0 l 297 0 l 297 896 l 414 896 z "},"Ŧ":{"ha":419,"x_min":0,"x_max":0,"o":"m 414 896 l 414 1056 l 6 1056 l 6 896 l 122 896 l 122 596 l 56 596 l 56 458 l 122 458 l 122 0 l 297 0 l 297 458 l 363 458 l 363 596 l 297 596 l 297 896 z "},"Ť":{"ha":419,"x_min":0,"x_max":0,"o":"m 293 1119 l 385 1292 l 290 1292 l 219 1210 l 147 1292 l 53 1292 l 144 1119 z m 414 1056 l 6 1056 l 6 896 l 122 896 l 122 0 l 297 0 l 297 896 l 414 896 z "},"Ţ":{"ha":419,"x_min":0,"x_max":0,"o":"m 414 1056 l 6 1056 l 6 896 l 122 896 l 122 0 l 153 0 l 83 -164 l 231 -164 l 258 0 l 297 0 l 297 896 l 414 896 z "},"Ț":{"ha":419,"x_min":0,"x_max":0,"o":"m 414 1056 l 6 1056 l 6 896 l 122 896 l 122 0 l 297 0 l 297 896 l 414 896 z m 131 -194 l 196 -194 l 132 -367 l 215 -367 l 288 -206 l 288 -22 l 131 -22 z "},"U":{"ha":421,"x_min":0,"x_max":0,"o":"m 213 -10 b 400 210 332 -10 400 43 l 400 1056 l 229 1056 l 228 199 b 211 160 228 169 225 160 b 193 199 197 160 193 169 l 193 1056 l 21 1056 l 21 210 b 213 -10 21 33 94 -10 z "},"Ú":{"ha":421,"x_min":0,"x_max":0,"o":"m 174 1106 l 343 1278 l 171 1278 l 79 1106 z m 213 -10 b 400 210 332 -10 400 43 l 400 1056 l 229 1056 l 228 199 b 211 160 228 169 225 160 b 193 199 197 160 193 169 l 193 1056 l 21 1056 l 21 210 b 213 -10 21 33 94 -10 z "},"Û":{"ha":421,"x_min":0,"x_max":0,"o":"m 376 1106 l 285 1278 l 136 1278 l 44 1106 l 139 1106 l 211 1188 l 282 1106 z m 213 -10 b 400 210 332 -10 400 43 l 400 1056 l 229 1056 l 228 199 b 211 160 228 169 225 160 b 193 199 197 160 193 169 l 193 1056 l 21 1056 l 21 210 b 213 -10 21 33 94 -10 z "},"Ü":{"ha":421,"x_min":0,"x_max":0,"o":"m 78 1210 l 78 1089 l 196 1089 l 196 1210 z m 225 1210 l 225 1089 l 343 1089 l 343 1210 z m 213 -10 b 400 210 332 -10 400 43 l 400 1056 l 229 1056 l 228 199 b 211 160 228 169 225 160 b 193 199 197 160 193 169 l 193 1056 l 21 1056 l 21 210 b 213 -10 21 33 94 -10 z "},"Ù":{"ha":421,"x_min":0,"x_max":0,"o":"m 249 1106 l 343 1106 l 251 1278 l 79 1278 z m 213 -10 b 400 210 332 -10 400 43 l 400 1056 l 229 1056 l 228 199 b 211 160 228 169 225 160 b 193 199 197 160 193 169 l 193 1056 l 21 1056 l 21 210 b 213 -10 21 33 94 -10 z "},"Ű":{"ha":421,"x_min":0,"x_max":0,"o":"m 90 1106 l 260 1278 l 88 1278 l -4 1106 z m 271 1106 l 440 1278 l 268 1278 l 176 1106 z m 213 -10 b 400 210 332 -10 400 43 l 400 1056 l 229 1056 l 228 199 b 211 160 228 169 225 160 b 193 199 197 160 193 169 l 193 1056 l 21 1056 l 21 210 b 213 -10 21 33 94 -10 z "},"Ū":{"ha":421,"x_min":0,"x_max":0,"o":"m 79 1229 l 79 1117 l 343 1117 l 343 1229 z m 213 -10 b 400 210 332 -10 400 43 l 400 1056 l 229 1056 l 228 199 b 211 160 228 169 225 160 b 193 199 197 160 193 169 l 193 1056 l 21 1056 l 21 210 b 213 -10 21 33 94 -10 z "},"Ų":{"ha":421,"x_min":0,"x_max":0,"o":"m 229 1056 l 228 199 b 211 160 228 169 225 160 b 193 199 197 160 193 169 l 193 1056 l 21 1056 l 21 210 b 201 -10 21 39 90 -7 b 89 -172 135 -51 89 -103 b 264 -304 89 -257 144 -304 l 264 -206 b 181 -144 207 -206 181 -181 b 278 -3 181 -107 217 -51 b 400 210 357 17 400 76 l 400 1056 z "},"Ů":{"ha":421,"x_min":0,"x_max":0,"o":"m 211 1096 b 308 1194 269 1097 308 1136 b 211 1293 308 1253 269 1292 b 113 1194 151 1292 113 1253 b 211 1096 113 1136 151 1097 z m 211 1157 b 176 1194 190 1157 176 1172 b 211 1232 176 1217 190 1232 b 244 1194 231 1232 244 1217 b 211 1157 244 1172 231 1157 z m 213 -10 b 400 210 332 -10 400 43 l 400 1056 l 229 1056 l 228 199 b 211 160 228 169 225 160 b 193 199 197 160 193 169 l 193 1056 l 21 1056 l 21 210 b 213 -10 21 33 94 -10 z "},"V":{"ha":449,"x_min":0,"x_max":0,"o":"m 115 0 l 333 0 l 444 1056 l 253 1056 b 226 367 243 828 236 596 l 224 367 b 196 1056 214 596 206 828 l 4 1056 z "},"W":{"ha":714,"x_min":0,"x_max":0,"o":"m 358 558 b 381 0 367 372 374 188 l 599 0 l 710 1056 l 518 1056 b 492 399 508 836 501 618 l 488 399 b 444 1056 474 618 460 836 l 269 1056 b 226 399 256 836 240 618 l 224 399 b 196 1056 214 618 206 836 l 4 1056 l 115 0 l 333 0 b 356 558 342 188 347 372 z "},"Ẃ":{"ha":714,"x_min":0,"x_max":0,"o":"m 319 1106 l 489 1278 l 317 1278 l 225 1106 z m 358 558 b 381 0 367 372 374 188 l 599 0 l 710 1056 l 518 1056 b 492 399 508 836 501 618 l 488 399 b 444 1056 474 618 460 836 l 269 1056 b 226 399 256 836 240 618 l 224 399 b 196 1056 214 618 206 836 l 4 1056 l 115 0 l 333 0 b 356 558 342 188 347 372 z "},"Ŵ":{"ha":714,"x_min":0,"x_max":0,"o":"m 522 1106 l 431 1278 l 282 1278 l 190 1106 l 285 1106 l 357 1188 l 428 1106 z m 358 558 b 381 0 367 372 374 188 l 599 0 l 710 1056 l 518 1056 b 492 399 508 836 501 618 l 488 399 b 444 1056 474 618 460 836 l 269 1056 b 226 399 256 836 240 618 l 224 399 b 196 1056 214 618 206 836 l 4 1056 l 115 0 l 333 0 b 356 558 342 188 347 372 z "},"Ẅ":{"ha":714,"x_min":0,"x_max":0,"o":"m 224 1210 l 224 1089 l 342 1089 l 342 1210 z m 371 1210 l 371 1089 l 489 1089 l 489 1210 z m 358 558 b 381 0 367 372 374 188 l 599 0 l 710 1056 l 518 1056 b 492 399 508 836 501 618 l 488 399 b 444 1056 474 618 460 836 l 269 1056 b 226 399 256 836 240 618 l 224 399 b 196 1056 214 618 206 836 l 4 1056 l 115 0 l 333 0 b 356 558 342 188 347 372 z "},"Ẁ":{"ha":714,"x_min":0,"x_max":0,"o":"m 394 1106 l 489 1106 l 397 1278 l 225 1278 z m 358 558 b 381 0 367 372 374 188 l 599 0 l 710 1056 l 518 1056 b 492 399 508 836 501 618 l 488 399 b 444 1056 474 618 460 836 l 269 1056 b 226 399 256 836 240 618 l 224 399 b 196 1056 214 618 206 836 l 4 1056 l 115 0 l 333 0 b 356 558 342 188 347 372 z "},"X":{"ha":454,"x_min":0,"x_max":0,"o":"m 4 0 l 196 0 l 228 382 l 258 0 l 450 0 l 363 526 l 450 1056 l 258 1056 l 228 615 l 196 1056 l 4 1056 l 92 526 z "},"Y":{"ha":449,"x_min":0,"x_max":0,"o":"m 136 0 l 313 0 l 313 347 l 444 1056 l 253 1056 l 226 622 l 224 622 l 196 1056 l 4 1056 l 136 353 z "},"Ý":{"ha":449,"x_min":0,"x_max":0,"o":"m 188 1106 l 357 1278 l 185 1278 l 93 1106 z m 136 0 l 313 0 l 313 347 l 444 1056 l 253 1056 l 226 622 l 224 622 l 196 1056 l 4 1056 l 136 353 z "},"Ŷ":{"ha":449,"x_min":0,"x_max":0,"o":"m 390 1106 l 299 1278 l 150 1278 l 58 1106 l 153 1106 l 225 1188 l 296 1106 z m 136 0 l 313 0 l 313 347 l 444 1056 l 253 1056 l 226 622 l 224 622 l 196 1056 l 4 1056 l 136 353 z "},"Ÿ":{"ha":449,"x_min":0,"x_max":0,"o":"m 92 1210 l 92 1089 l 210 1089 l 210 1210 z m 239 1210 l 239 1089 l 357 1089 l 357 1210 z m 136 0 l 313 0 l 313 347 l 444 1056 l 253 1056 l 226 622 l 224 622 l 196 1056 l 4 1056 l 136 353 z "},"Ỳ":{"ha":449,"x_min":0,"x_max":0,"o":"m 263 1106 l 357 1106 l 265 1278 l 93 1278 z m 136 0 l 313 0 l 313 347 l 444 1056 l 253 1056 l 226 622 l 224 622 l 196 1056 l 4 1056 l 136 353 z "},"Z":{"ha":418,"x_min":0,"x_max":0,"o":"m 397 0 l 397 160 l 164 160 l 381 911 l 381 1056 l 19 1056 l 19 896 l 221 896 l 4 143 l 4 0 z "},"Ź":{"ha":418,"x_min":0,"x_max":0,"o":"m 172 1106 l 342 1278 l 169 1278 l 78 1106 z m 397 0 l 397 160 l 164 160 l 381 911 l 381 1056 l 19 1056 l 19 896 l 221 896 l 4 143 l 4 0 z "},"Ž":{"ha":418,"x_min":0,"x_max":0,"o":"m 385 1292 l 290 1292 l 219 1210 l 147 1292 l 53 1292 l 144 1119 l 293 1119 z m 397 0 l 397 160 l 164 160 l 381 911 l 381 1056 l 19 1056 l 19 896 l 221 896 l 4 143 l 4 0 z "},"Ż":{"ha":418,"x_min":0,"x_max":0,"o":"m 121 1246 l 121 1089 l 297 1089 l 297 1246 z m 397 0 l 397 160 l 164 160 l 381 911 l 381 1056 l 19 1056 l 19 896 l 221 896 l 4 143 l 4 0 z "},"a":{"ha":401,"x_min":0,"x_max":0,"o":"m 383 640 b 200 814 383 747 315 814 b 18 640 90 814 18 747 l 18 550 l 183 550 l 183 643 b 201 690 183 675 188 690 b 217 643 214 690 217 675 l 217 529 b 100 483 178 514 138 499 b 18 329 47 461 18 432 l 18 165 b 122 -10 18 50 46 -10 b 224 43 163 -10 214 15 l 229 43 l 243 0 l 383 0 z m 217 181 b 200 110 217 122 215 110 b 183 181 185 110 183 122 l 183 325 b 197 383 183 357 183 374 l 217 397 z "},"á":{"ha":401,"x_min":0,"x_max":0,"o":"m 164 850 l 333 1022 l 161 1022 l 69 850 z m 383 640 b 200 814 383 747 315 814 b 18 640 90 814 18 747 l 18 550 l 183 550 l 183 643 b 201 690 183 675 188 690 b 217 643 214 690 217 675 l 217 529 b 100 483 178 514 138 499 b 18 329 47 461 18 432 l 18 165 b 122 -10 18 50 46 -10 b 224 43 163 -10 214 15 l 229 43 l 243 0 l 383 0 z m 217 181 b 200 110 217 122 215 110 b 183 181 185 110 183 122 l 183 325 b 197 383 183 357 183 374 l 217 397 z "},"ă":{"ha":401,"x_min":0,"x_max":0,"o":"m 263 1008 b 201 943 263 969 238 943 b 139 1008 164 943 139 969 l 40 1008 b 201 861 40 918 101 863 b 361 1008 300 860 361 917 z m 383 640 b 200 814 383 747 315 814 b 18 640 90 814 18 747 l 18 550 l 183 550 l 183 643 b 201 690 183 675 188 690 b 217 643 214 690 217 675 l 217 529 b 100 483 178 514 138 499 b 18 329 47 461 18 432 l 18 165 b 122 -10 18 50 46 -10 b 224 43 163 -10 214 15 l 229 43 l 243 0 l 383 0 z m 217 181 b 200 110 217 122 215 110 b 183 181 185 110 183 122 l 183 325 b 197 383 183 357 183 374 l 217 397 z "},"â":{"ha":401,"x_min":0,"x_max":0,"o":"m 367 850 l 275 1022 l 126 1022 l 35 850 l 129 850 l 201 932 l 272 850 z m 383 640 b 200 814 383 747 315 814 b 18 640 90 814 18 747 l 18 550 l 183 550 l 183 643 b 201 690 183 675 188 690 b 217 643 214 690 217 675 l 217 529 b 100 483 178 514 138 499 b 18 329 47 461 18 432 l 18 165 b 122 -10 18 50 46 -10 b 224 43 163 -10 214 15 l 229 43 l 243 0 l 383 0 z m 217 181 b 200 110 217 122 215 110 b 183 181 185 110 183 122 l 183 325 b 197 383 183 357 183 374 l 217 397 z "},"ä":{"ha":401,"x_min":0,"x_max":0,"o":"m 68 954 l 68 833 l 186 833 l 186 954 z m 215 954 l 215 833 l 333 833 l 333 954 z m 383 640 b 200 814 383 747 315 814 b 18 640 90 814 18 747 l 18 550 l 183 550 l 183 643 b 201 690 183 675 188 690 b 217 643 214 690 217 675 l 217 529 b 100 483 178 514 138 499 b 18 329 47 461 18 432 l 18 165 b 122 -10 18 50 46 -10 b 224 43 163 -10 214 15 l 229 43 l 243 0 l 383 0 z m 217 181 b 200 110 217 122 215 110 b 183 181 185 110 183 122 l 183 325 b 197 383 183 357 183 374 l 217 397 z "},"à":{"ha":401,"x_min":0,"x_max":0,"o":"m 239 850 l 333 850 l 242 1022 l 69 1022 z m 383 640 b 200 814 383 747 315 814 b 18 640 90 814 18 747 l 18 550 l 183 550 l 183 643 b 201 690 183 675 188 690 b 217 643 214 690 217 675 l 217 529 b 100 483 178 514 138 499 b 18 329 47 461 18 432 l 18 165 b 122 -10 18 50 46 -10 b 224 43 163 -10 214 15 l 229 43 l 243 0 l 383 0 z m 217 181 b 200 110 217 122 215 110 b 183 181 185 110 183 122 l 183 325 b 197 383 183 357 183 374 l 217 397 z "},"ā":{"ha":401,"x_min":0,"x_max":0,"o":"m 69 974 l 69 861 l 333 861 l 333 974 z m 383 640 b 200 814 383 747 315 814 b 18 640 90 814 18 747 l 18 550 l 183 550 l 183 643 b 201 690 183 675 188 690 b 217 643 214 690 217 675 l 217 529 b 100 483 178 514 138 499 b 18 329 47 461 18 432 l 18 165 b 122 -10 18 50 46 -10 b 224 43 163 -10 214 15 l 229 43 l 243 0 l 383 0 z m 217 181 b 200 110 217 122 215 110 b 183 181 185 110 183 122 l 183 325 b 197 383 183 357 183 374 l 217 397 z "},"ą":{"ha":401,"x_min":0,"x_max":0,"o":"m 200 814 b 18 640 90 814 18 747 l 18 550 l 183 550 l 183 643 b 201 690 183 675 188 690 b 217 643 214 690 217 675 l 217 529 b 100 483 178 514 138 499 b 18 329 47 461 18 432 l 18 165 b 122 -10 18 50 46 -10 b 224 43 163 -10 214 15 l 229 43 l 243 0 l 297 0 b 168 -172 221 -43 168 -97 b 343 -304 168 -257 224 -304 l 343 -206 b 260 -144 286 -206 260 -181 b 361 0 260 -107 297 -50 l 383 0 l 383 640 b 200 814 383 747 315 814 z m 217 181 b 200 110 217 122 215 110 b 183 181 185 110 183 122 l 183 325 b 197 383 183 357 183 374 l 217 397 z "},"å":{"ha":401,"x_min":0,"x_max":0,"o":"m 201 840 b 299 939 260 842 299 881 b 201 1038 299 997 260 1036 b 103 939 142 1036 103 997 b 201 840 103 881 142 842 z m 201 901 b 167 939 181 901 167 917 b 201 976 167 961 181 976 b 235 939 221 976 235 961 b 201 901 235 917 221 901 z m 383 640 b 200 814 383 747 315 814 b 18 640 90 814 18 747 l 18 550 l 183 550 l 183 643 b 201 690 183 675 188 690 b 217 643 214 690 217 675 l 217 529 b 100 483 178 514 138 499 b 18 329 47 461 18 432 l 18 165 b 122 -10 18 50 46 -10 b 224 43 163 -10 214 15 l 229 43 l 243 0 l 383 0 z m 217 181 b 200 110 217 122 215 110 b 183 181 185 110 183 122 l 183 325 b 197 383 183 357 183 374 l 217 397 z "},"ã":{"ha":401,"x_min":0,"x_max":0,"o":"m 268 986 l 268 975 b 242 949 268 961 260 949 b 135 988 211 949 190 988 b 53 875 71 988 53 936 l 53 861 l 135 861 l 135 872 b 158 901 135 888 143 901 b 269 858 186 901 211 858 b 350 972 333 858 350 910 l 350 986 z m 383 640 b 200 814 383 747 315 814 b 18 640 90 814 18 747 l 18 550 l 183 550 l 183 643 b 201 690 183 675 188 690 b 217 643 214 690 217 675 l 217 529 b 100 483 178 514 138 499 b 18 329 47 461 18 432 l 18 165 b 122 -10 18 50 46 -10 b 224 43 163 -10 214 15 l 229 43 l 243 0 l 383 0 z m 217 181 b 200 110 217 122 215 110 b 183 181 185 110 183 122 l 183 325 b 197 383 183 357 183 374 l 217 397 z "},"æ":{"ha":603,"x_min":0,"x_max":0,"o":"m 585 376 l 585 642 b 399 814 585 754 513 814 b 297 792 358 814 325 807 b 200 814 271 807 238 814 b 18 640 90 814 18 747 l 18 550 l 183 550 l 183 643 b 200 690 183 675 186 690 b 217 643 213 690 217 675 l 217 529 b 100 483 178 514 138 499 b 18 329 47 461 18 432 l 18 165 b 122 -10 18 50 46 -10 b 246 54 160 -10 207 13 b 399 -10 275 14 328 -10 b 585 149 513 -10 585 50 l 585 339 l 418 339 l 418 149 b 400 108 418 121 415 108 b 383 149 386 108 383 121 l 383 376 z m 383 644 b 401 690 383 671 386 690 b 418 644 415 690 418 674 l 418 481 l 383 481 z m 200 110 b 183 181 185 110 183 122 l 183 325 b 197 383 183 357 183 374 l 217 397 l 217 181 b 200 110 217 122 215 110 z "},"ǽ":{"ha":603,"x_min":0,"x_max":0,"o":"m 433 1022 l 261 1022 l 169 850 l 264 850 z m 585 376 l 585 642 b 399 814 585 754 513 814 b 297 792 358 814 325 807 b 200 814 271 807 238 814 b 18 640 90 814 18 747 l 18 550 l 183 550 l 183 643 b 200 690 183 675 186 690 b 217 643 213 690 217 675 l 217 529 b 100 483 178 514 138 499 b 18 329 47 461 18 432 l 18 165 b 122 -10 18 50 46 -10 b 246 54 160 -10 207 13 b 399 -10 275 14 328 -10 b 585 149 513 -10 585 50 l 585 339 l 418 339 l 418 149 b 400 108 418 121 415 108 b 383 149 386 108 383 121 l 383 376 z m 383 644 b 401 690 383 671 386 690 b 418 644 415 690 418 674 l 418 481 l 383 481 z m 200 110 b 183 181 185 110 183 122 l 183 325 b 197 383 183 357 183 374 l 217 397 l 217 181 b 200 110 217 122 215 110 z "},"b":{"ha":407,"x_min":0,"x_max":0,"o":"m 282 -10 b 389 165 360 -10 389 54 l 389 668 b 285 814 389 747 361 814 b 194 758 246 814 217 792 l 189 758 l 189 1083 l 22 1083 l 22 0 l 168 0 l 182 43 l 188 43 b 282 -10 203 29 228 -10 z m 206 110 b 189 181 192 110 189 117 l 189 618 b 206 690 189 675 190 690 b 222 618 219 690 222 675 l 222 181 b 206 110 222 117 221 110 z "},"c":{"ha":404,"x_min":0,"x_max":0,"o":"m 200 -10 b 386 149 314 -10 386 51 l 386 375 l 219 375 l 219 149 b 201 110 219 122 217 110 b 185 149 188 110 185 122 l 185 650 b 201 694 185 682 188 694 b 219 650 217 694 219 682 l 219 439 l 386 439 l 386 635 b 200 814 386 754 314 814 b 18 635 86 814 18 753 l 18 149 b 200 -10 18 53 86 -10 z "},"ć":{"ha":404,"x_min":0,"x_max":0,"o":"m 165 850 l 335 1022 l 163 1022 l 71 850 z m 200 -10 b 386 149 314 -10 386 51 l 386 375 l 219 375 l 219 149 b 201 110 219 122 217 110 b 185 149 188 110 185 122 l 185 650 b 201 694 185 682 188 694 b 219 650 217 694 219 682 l 219 439 l 386 439 l 386 635 b 200 814 386 754 314 814 b 18 635 86 814 18 753 l 18 149 b 200 -10 18 53 86 -10 z "},"č":{"ha":404,"x_min":0,"x_max":0,"o":"m 378 1036 l 283 1036 l 213 954 l 140 1036 l 46 1036 l 138 864 l 286 864 z m 200 -10 b 386 149 314 -10 386 51 l 386 375 l 219 375 l 219 149 b 201 110 219 122 217 110 b 185 149 188 110 185 122 l 185 650 b 201 694 185 682 188 694 b 219 650 217 694 219 682 l 219 439 l 386 439 l 386 635 b 200 814 386 754 314 814 b 18 635 86 814 18 753 l 18 149 b 200 -10 18 53 86 -10 z "},"ç":{"ha":404,"x_min":0,"x_max":0,"o":"m 386 439 l 386 635 b 200 814 386 754 314 814 b 18 635 86 814 18 753 l 18 149 b 144 -4 18 69 64 14 l 76 -164 l 224 -164 l 251 -6 b 386 149 335 11 386 67 l 386 375 l 219 375 l 219 149 b 201 110 219 122 217 110 b 185 149 188 110 185 122 l 185 650 b 201 694 185 682 188 694 b 219 650 217 694 219 682 l 219 439 z "},"ċ":{"ha":404,"x_min":0,"x_max":0,"o":"m 114 990 l 114 833 l 290 833 l 290 990 z m 200 -10 b 386 149 314 -10 386 51 l 386 375 l 219 375 l 219 149 b 201 110 219 122 217 110 b 185 149 188 110 185 122 l 185 650 b 201 694 185 682 188 694 b 219 650 217 694 219 682 l 219 439 l 386 439 l 386 635 b 200 814 386 754 314 814 b 18 635 86 814 18 753 l 18 149 b 200 -10 18 53 86 -10 z "},"d":{"ha":407,"x_min":0,"x_max":0,"o":"m 125 -10 b 219 43 179 -10 210 29 l 225 43 l 225 0 l 385 0 l 385 1083 l 215 1083 l 215 758 l 210 758 b 122 814 188 792 161 814 b 18 668 46 814 18 747 l 18 165 b 125 -10 18 54 47 -10 z m 201 110 b 185 181 186 110 185 117 l 185 618 b 201 690 185 675 188 690 b 218 618 217 690 218 675 l 218 181 b 201 110 218 117 215 110 z "},"ð":{"ha":404,"x_min":0,"x_max":0,"o":"m 382 967 l 382 1071 l 304 1038 b 285 1083 297 1050 292 1065 l 108 1083 b 163 976 131 1046 149 1011 l 90 944 l 90 840 l 194 885 b 215 758 204 846 211 804 l 211 758 b 114 814 189 790 163 814 b 19 668 81 814 19 785 l 19 149 b 199 -10 19 51 88 -10 b 385 149 313 -10 385 50 l 385 631 b 338 947 385 756 360 881 z m 218 181 b 201 110 218 121 217 110 b 185 181 185 110 185 121 l 185 618 b 201 690 185 675 188 690 b 218 618 217 690 218 675 z "},"ď":{"ha":572,"x_min":0,"x_max":0,"o":"m 215 758 l 210 758 b 122 814 188 792 161 814 b 18 668 46 814 18 747 l 18 165 b 125 -10 18 54 47 -10 b 219 43 179 -10 210 29 l 225 43 l 225 0 l 385 0 l 385 1083 l 215 1083 z m 403 1056 l 403 883 l 468 883 l 404 711 l 488 711 l 560 872 l 560 1056 z m 218 181 b 201 110 218 117 215 110 b 185 181 186 110 185 117 l 185 618 b 201 690 185 675 188 690 b 218 618 217 690 218 675 z "},"đ":{"ha":407,"x_min":0,"x_max":0,"o":"m 440 1024 l 385 1024 l 385 1083 l 215 1083 l 215 1024 l 133 1024 l 133 886 l 215 886 l 215 758 l 210 758 b 122 814 188 792 161 814 b 18 668 46 814 18 747 l 18 165 b 125 -10 18 54 47 -10 b 219 43 179 -10 210 29 l 225 43 l 225 0 l 385 0 l 385 886 l 440 886 z m 218 181 b 201 110 218 117 215 110 b 185 181 186 110 185 117 l 185 618 b 201 690 185 675 188 690 b 218 618 217 690 218 675 z "},"e":{"ha":404,"x_min":0,"x_max":0,"o":"m 200 -10 b 386 149 314 -10 386 50 l 386 339 l 219 339 l 219 149 b 201 108 219 121 217 108 b 185 149 188 108 185 121 l 185 376 l 386 376 l 386 642 b 200 814 386 754 314 814 b 18 642 86 814 18 753 l 18 149 b 200 -10 18 51 86 -10 z m 185 481 l 185 644 b 203 690 185 671 188 690 b 219 644 217 690 219 674 l 219 481 z "},"é":{"ha":404,"x_min":0,"x_max":0,"o":"m 165 850 l 335 1022 l 163 1022 l 71 850 z m 200 -10 b 386 149 314 -10 386 50 l 386 339 l 219 339 l 219 149 b 201 108 219 121 217 108 b 185 149 188 108 185 121 l 185 376 l 386 376 l 386 642 b 200 814 386 754 314 814 b 18 642 86 814 18 753 l 18 149 b 200 -10 18 51 86 -10 z m 185 481 l 185 644 b 203 690 185 671 188 690 b 219 644 217 690 219 674 l 219 481 z "},"ě":{"ha":404,"x_min":0,"x_max":0,"o":"m 378 1036 l 283 1036 l 213 954 l 140 1036 l 46 1036 l 138 864 l 286 864 z m 200 -10 b 386 149 314 -10 386 50 l 386 339 l 219 339 l 219 149 b 201 108 219 121 217 108 b 185 149 188 108 185 121 l 185 376 l 386 376 l 386 642 b 200 814 386 754 314 814 b 18 642 86 814 18 753 l 18 149 b 200 -10 18 51 86 -10 z m 185 481 l 185 644 b 203 690 185 671 188 690 b 219 644 217 690 219 674 l 219 481 z "},"ê":{"ha":404,"x_min":0,"x_max":0,"o":"m 368 850 l 276 1022 l 128 1022 l 36 850 l 131 850 l 203 932 l 274 850 z m 200 -10 b 386 149 314 -10 386 50 l 386 339 l 219 339 l 219 149 b 201 108 219 121 217 108 b 185 149 188 108 185 121 l 185 376 l 386 376 l 386 642 b 200 814 386 754 314 814 b 18 642 86 814 18 753 l 18 149 b 200 -10 18 51 86 -10 z m 185 481 l 185 644 b 203 690 185 671 188 690 b 219 644 217 690 219 674 l 219 481 z "},"ë":{"ha":404,"x_min":0,"x_max":0,"o":"m 69 954 l 69 833 l 188 833 l 188 954 z m 217 954 l 217 833 l 335 833 l 335 954 z m 200 -10 b 386 149 314 -10 386 50 l 386 339 l 219 339 l 219 149 b 201 108 219 121 217 108 b 185 149 188 108 185 121 l 185 376 l 386 376 l 386 642 b 200 814 386 754 314 814 b 18 642 86 814 18 753 l 18 149 b 200 -10 18 51 86 -10 z m 185 481 l 185 644 b 203 690 185 671 188 690 b 219 644 217 690 219 674 l 219 481 z "},"ė":{"ha":404,"x_min":0,"x_max":0,"o":"m 114 990 l 114 833 l 290 833 l 290 990 z m 200 -10 b 386 149 314 -10 386 50 l 386 339 l 219 339 l 219 149 b 201 108 219 121 217 108 b 185 149 188 108 185 121 l 185 376 l 386 376 l 386 642 b 200 814 386 754 314 814 b 18 642 86 814 18 753 l 18 149 b 200 -10 18 51 86 -10 z m 185 481 l 185 644 b 203 690 185 671 188 690 b 219 644 217 690 219 674 l 219 481 z "},"è":{"ha":404,"x_min":0,"x_max":0,"o":"m 240 850 l 335 850 l 243 1022 l 71 1022 z m 200 -10 b 386 149 314 -10 386 50 l 386 339 l 219 339 l 219 149 b 201 108 219 121 217 108 b 185 149 188 108 185 121 l 185 376 l 386 376 l 386 642 b 200 814 386 754 314 814 b 18 642 86 814 18 753 l 18 149 b 200 -10 18 51 86 -10 z m 185 481 l 185 644 b 203 690 185 671 188 690 b 219 644 217 690 219 674 l 219 481 z "},"ē":{"ha":404,"x_min":0,"x_max":0,"o":"m 71 974 l 71 861 l 335 861 l 335 974 z m 200 -10 b 386 149 314 -10 386 50 l 386 339 l 219 339 l 219 149 b 201 108 219 121 217 108 b 185 149 188 108 185 121 l 185 376 l 386 376 l 386 642 b 200 814 386 754 314 814 b 18 642 86 814 18 753 l 18 149 b 200 -10 18 51 86 -10 z m 185 481 l 185 644 b 203 690 185 671 188 690 b 219 644 217 690 219 674 l 219 481 z "},"ę":{"ha":404,"x_min":0,"x_max":0,"o":"m 386 376 l 386 642 b 200 814 386 754 314 814 b 18 642 86 814 18 753 l 18 149 b 186 -10 18 56 81 -4 b 74 -172 119 -51 74 -103 b 249 -304 74 -257 129 -304 l 249 -206 b 165 -144 192 -206 165 -181 b 264 -3 165 -107 201 -51 b 386 149 340 15 386 69 l 386 339 l 219 339 l 219 149 b 201 108 219 121 217 108 b 185 149 188 108 185 121 l 185 376 z m 185 644 b 203 690 185 671 188 690 b 219 644 217 690 219 674 l 219 481 l 185 481 z "},"f":{"ha":326,"x_min":0,"x_max":0,"o":"m 64 0 l 232 0 l 232 640 l 307 640 l 307 800 l 232 800 l 232 878 b 288 949 232 919 243 949 l 326 949 l 326 1083 l 219 1083 b 64 897 108 1083 64 1025 l 64 800 l 22 800 l 22 640 l 65 640 z "},"g":{"ha":407,"x_min":0,"x_max":0,"o":"m 232 800 l 232 758 l 226 758 b 119 814 204 792 172 814 b 18 668 46 814 18 747 l 18 165 b 129 -6 18 54 47 -6 b 213 43 169 -6 203 24 l 218 43 l 218 -147 b 204 -196 218 -182 218 -196 b 189 -146 188 -196 189 -182 l 189 -46 l 22 -46 l 22 -183 b 200 -328 22 -285 88 -328 b 385 -183 314 -328 385 -299 l 385 0 l 385 800 z m 218 181 b 201 110 218 122 217 110 b 185 181 188 110 185 122 l 185 618 b 201 689 185 675 188 689 b 218 618 217 689 218 675 z "},"ğ":{"ha":407,"x_min":0,"x_max":0,"o":"m 204 861 b 364 1008 303 860 364 917 l 265 1008 b 204 943 265 969 240 943 b 142 1008 167 943 142 969 l 43 1008 b 204 861 43 918 104 863 z m 232 800 l 232 758 l 226 758 b 119 814 204 792 172 814 b 18 668 46 814 18 747 l 18 165 b 129 -6 18 54 47 -6 b 213 43 169 -6 203 24 l 218 43 l 218 -147 b 204 -196 218 -182 218 -196 b 189 -146 188 -196 189 -182 l 189 -46 l 22 -46 l 22 -183 b 200 -328 22 -285 88 -328 b 385 -183 314 -328 385 -299 l 385 0 l 385 800 z m 218 181 b 201 110 218 122 217 110 b 185 181 188 110 185 122 l 185 618 b 201 689 185 675 188 689 b 218 618 217 689 218 675 z "},"ģ":{"ha":407,"x_min":0,"x_max":0,"o":"m 282 1008 l 217 1008 l 281 1181 l 197 1181 l 125 1019 l 125 836 l 282 836 z m 232 800 l 232 758 l 226 758 b 119 814 204 792 172 814 b 18 668 46 814 18 747 l 18 165 b 129 -6 18 54 47 -6 b 213 43 169 -6 203 24 l 218 43 l 218 -147 b 204 -196 218 -182 218 -196 b 189 -146 188 -196 189 -182 l 189 -46 l 22 -46 l 22 -183 b 200 -328 22 -285 88 -328 b 385 -183 314 -328 385 -299 l 385 0 l 385 800 z m 218 181 b 201 110 218 122 217 110 b 185 181 188 110 185 122 l 185 618 b 201 689 185 675 188 689 b 218 618 217 689 218 675 z "},"ġ":{"ha":407,"x_min":0,"x_max":0,"o":"m 292 990 l 115 990 l 115 833 l 292 833 z m 232 800 l 232 758 l 226 758 b 119 814 204 792 172 814 b 18 668 46 814 18 747 l 18 165 b 129 -6 18 54 47 -6 b 213 43 169 -6 203 24 l 218 43 l 218 -147 b 204 -196 218 -182 218 -196 b 189 -146 188 -196 189 -182 l 189 -46 l 22 -46 l 22 -183 b 200 -328 22 -285 88 -328 b 385 -183 314 -328 385 -299 l 385 0 l 385 800 z m 218 181 b 201 110 218 122 217 110 b 185 181 188 110 185 122 l 185 618 b 201 689 185 675 188 689 b 218 618 217 689 218 675 z "},"h":{"ha":407,"x_min":0,"x_max":0,"o":"m 22 0 l 189 0 l 189 617 b 207 686 189 674 192 686 b 222 617 221 686 222 674 l 222 0 l 389 0 l 389 685 b 294 813 389 750 371 813 b 190 757 244 813 210 776 l 189 757 l 189 1083 l 22 1083 z "},"ħ":{"ha":407,"x_min":0,"x_max":0,"o":"m 294 813 b 190 757 244 813 210 776 l 189 757 l 189 886 l 260 886 l 260 1024 l 189 1024 l 189 1083 l 22 1083 l 22 1024 l -47 1024 l -47 886 l 22 886 l 22 0 l 189 0 l 189 617 b 207 686 189 674 192 686 b 222 617 221 686 222 674 l 222 0 l 389 0 l 389 685 b 294 813 389 750 371 813 z "},"i":{"ha":221,"x_min":0,"x_max":0,"o":"m 22 990 l 22 833 l 199 833 l 199 990 z m 26 800 l 26 0 l 193 0 l 193 800 z "},"ı":{"ha":221,"x_min":0,"x_max":0,"o":"m 26 800 l 26 0 l 193 0 l 193 800 z "},"í":{"ha":221,"x_min":0,"x_max":0,"o":"m 74 850 l 243 1022 l 71 1022 l -21 850 z m 26 800 l 26 0 l 193 0 l 193 800 z "},"î":{"ha":221,"x_min":0,"x_max":0,"o":"m 276 850 l 185 1022 l 36 1022 l -56 850 l 39 850 l 111 932 l 182 850 z m 26 800 l 26 0 l 193 0 l 193 800 z "},"ï":{"ha":243,"x_min":0,"x_max":0,"o":"m -11 954 l -11 833 l 107 833 l 107 954 z m 136 954 l 136 833 l 254 833 l 254 954 z m 38 800 l 38 0 l 204 0 l 204 800 z "},"ì":{"ha":221,"x_min":0,"x_max":0,"o":"m 149 850 l 243 850 l 151 1022 l -21 1022 z m 26 800 l 26 0 l 193 0 l 193 800 z "},"ī":{"ha":221,"x_min":0,"x_max":0,"o":"m -21 974 l -21 861 l 243 861 l 243 974 z m 26 800 l 26 0 l 193 0 l 193 800 z "},"į":{"ha":221,"x_min":0,"x_max":0,"o":"m 22 990 l 22 833 l 199 833 l 199 990 z m 26 0 l 129 0 b 0 -172 53 -43 0 -97 b 175 -304 0 -257 56 -304 l 175 -206 b 92 -144 118 -206 92 -181 b 193 0 92 -107 129 -50 l 193 800 l 26 800 z "},"j":{"ha":250,"x_min":0,"x_max":0,"o":"m 53 835 l 228 835 l 228 992 l 53 992 z m 224 800 l 57 800 l 57 -57 b 21 -128 57 -99 46 -128 l -14 -128 l -14 -306 l 75 -306 b 224 -135 179 -306 222 -262 z "},"k":{"ha":432,"x_min":0,"x_max":0,"o":"m 428 800 l 246 800 l 188 518 l 189 1083 l 22 1083 l 22 0 l 189 0 l 188 343 l 244 0 l 428 0 l 329 424 z "},"ķ":{"ha":432,"x_min":0,"x_max":0,"o":"m 428 800 l 246 800 l 188 518 l 189 1083 l 22 1083 l 22 0 l 189 0 l 188 343 l 244 0 l 428 0 l 329 424 z m 138 -194 l 203 -194 l 139 -367 l 222 -367 l 294 -206 l 294 -22 l 138 -22 z "},"l":{"ha":211,"x_min":0,"x_max":0,"o":"m 22 1083 l 22 0 l 189 0 l 189 1083 z "},"ĺ":{"ha":211,"x_min":0,"x_max":0,"o":"m 68 1133 l 238 1306 l 65 1306 l -26 1133 z m 22 1083 l 22 0 l 189 0 l 189 1083 z "},"ľ":{"ha":376,"x_min":0,"x_max":0,"o":"m 22 0 l 189 0 l 189 1083 l 22 1083 z m 207 1056 l 207 883 l 272 883 l 208 711 l 292 711 l 364 872 l 364 1056 z "},"ļ":{"ha":211,"x_min":0,"x_max":0,"o":"m 22 1083 l 22 0 l 189 0 l 189 1083 z m 26 -194 l 92 -194 l 28 -367 l 111 -367 l 183 -206 l 183 -22 l 26 -22 z "},"ł":{"ha":211,"x_min":0,"x_max":0,"o":"m 249 707 l 189 671 l 189 1083 l 22 1083 l 22 572 l -39 536 l -39 369 l 22 406 l 22 0 l 189 0 l 189 501 l 249 536 z "},"m":{"ha":607,"x_min":0,"x_max":0,"o":"m 22 0 l 189 0 l 189 617 b 206 686 189 674 192 686 b 222 617 221 686 222 674 l 222 0 l 389 0 l 389 617 b 406 686 389 674 393 686 b 422 617 419 686 422 674 l 422 0 l 589 0 l 589 685 b 499 814 589 747 572 814 b 388 742 442 814 408 775 l 383 742 b 299 814 375 781 351 814 b 186 757 246 814 208 782 l 182 757 l 182 800 l 22 800 z "},"n":{"ha":407,"x_min":0,"x_max":0,"o":"m 22 0 l 189 0 l 189 617 b 206 686 189 674 192 686 b 222 617 221 686 222 674 l 222 0 l 389 0 l 389 685 b 297 814 389 750 371 814 b 183 757 247 814 203 776 l 182 757 l 182 800 l 22 800 z "},"ń":{"ha":407,"x_min":0,"x_max":0,"o":"m 167 850 l 336 1022 l 164 1022 l 72 850 z m 22 0 l 189 0 l 189 617 b 206 686 189 674 192 686 b 222 617 221 686 222 674 l 222 0 l 389 0 l 389 685 b 297 814 389 750 371 814 b 183 757 247 814 203 776 l 182 757 l 182 800 l 22 800 z "},"ň":{"ha":407,"x_min":0,"x_max":0,"o":"m 379 1036 l 285 1036 l 214 954 l 142 1036 l 47 1036 l 139 864 l 288 864 z m 22 0 l 189 0 l 189 617 b 206 686 189 674 192 686 b 222 617 221 686 222 674 l 222 0 l 389 0 l 389 685 b 297 814 389 750 371 814 b 183 757 247 814 203 776 l 182 757 l 182 800 l 22 800 z "},"ņ":{"ha":407,"x_min":0,"x_max":0,"o":"m 297 814 b 183 757 247 814 203 776 l 182 757 l 182 800 l 22 800 l 22 0 l 189 0 l 189 617 b 206 686 189 674 192 686 b 222 617 221 686 222 674 l 222 0 l 389 0 l 389 685 b 297 814 389 750 371 814 z m 125 -194 l 190 -194 l 126 -367 l 210 -367 l 282 -206 l 282 -22 l 125 -22 z "},"ŋ":{"ha":407,"x_min":0,"x_max":0,"o":"m 297 814 b 183 757 247 814 203 776 l 182 757 l 182 800 l 22 800 l 22 0 l 189 0 l 189 617 b 206 686 189 674 192 686 b 222 617 221 686 222 674 l 222 -57 b 186 -128 222 -99 211 -128 l 151 -128 l 151 -306 l 240 -306 b 389 -135 344 -306 388 -262 l 389 685 b 297 814 389 750 371 814 z "},"ñ":{"ha":407,"x_min":0,"x_max":0,"o":"m 271 986 l 271 975 b 244 949 271 961 263 949 b 138 988 214 949 193 988 b 56 875 74 988 56 936 l 56 861 l 138 861 l 138 872 b 161 901 138 888 146 901 b 272 858 189 901 214 858 b 353 972 336 858 353 910 l 353 986 z m 22 0 l 189 0 l 189 617 b 206 686 189 674 192 686 b 222 617 221 686 222 674 l 222 0 l 389 0 l 389 685 b 297 814 389 750 371 814 b 183 757 247 814 203 776 l 182 757 l 182 800 l 22 800 z "},"o":{"ha":403,"x_min":0,"x_max":0,"o":"m 385 169 l 385 635 b 199 814 385 753 313 814 b 18 635 86 814 18 751 l 18 169 b 199 -10 18 53 86 -10 b 385 169 313 -10 385 51 z m 218 618 l 218 186 b 201 114 218 129 217 114 b 185 186 188 114 185 129 l 185 618 b 201 690 185 675 188 690 b 218 618 217 690 218 675 z "},"ó":{"ha":403,"x_min":0,"x_max":0,"o":"m 164 850 l 333 1022 l 161 1022 l 69 850 z m 385 169 l 385 635 b 199 814 385 753 313 814 b 18 635 86 814 18 751 l 18 169 b 199 -10 18 53 86 -10 b 385 169 313 -10 385 51 z m 218 618 l 218 186 b 201 114 218 129 217 114 b 185 186 188 114 185 129 l 185 618 b 201 690 185 675 188 690 b 218 618 217 690 218 675 z "},"ô":{"ha":403,"x_min":0,"x_max":0,"o":"m 367 850 l 275 1022 l 126 1022 l 35 850 l 129 850 l 201 932 l 272 850 z m 385 169 l 385 635 b 199 814 385 753 313 814 b 18 635 86 814 18 751 l 18 169 b 199 -10 18 53 86 -10 b 385 169 313 -10 385 51 z m 218 618 l 218 186 b 201 114 218 129 217 114 b 185 186 188 114 185 129 l 185 618 b 201 690 185 675 188 690 b 218 618 217 690 218 675 z "},"ö":{"ha":403,"x_min":0,"x_max":0,"o":"m 68 954 l 68 833 l 186 833 l 186 954 z m 215 954 l 215 833 l 333 833 l 333 954 z m 385 169 l 385 635 b 199 814 385 753 313 814 b 18 635 86 814 18 751 l 18 169 b 199 -10 18 53 86 -10 b 385 169 313 -10 385 51 z m 218 618 l 218 186 b 201 114 218 129 217 114 b 185 186 188 114 185 129 l 185 618 b 201 690 185 675 188 690 b 218 618 217 690 218 675 z "},"ò":{"ha":403,"x_min":0,"x_max":0,"o":"m 239 850 l 333 850 l 242 1022 l 69 1022 z m 385 169 l 385 635 b 199 814 385 753 313 814 b 18 635 86 814 18 751 l 18 169 b 199 -10 18 53 86 -10 b 385 169 313 -10 385 51 z m 218 618 l 218 186 b 201 114 218 129 217 114 b 185 186 188 114 185 129 l 185 618 b 201 690 185 675 188 690 b 218 618 217 690 218 675 z "},"ő":{"ha":403,"x_min":0,"x_max":0,"o":"m 81 850 l 250 1022 l 78 1022 l -14 850 z m 261 850 l 431 1022 l 258 1022 l 167 850 z m 385 169 l 385 635 b 199 814 385 753 313 814 b 18 635 86 814 18 751 l 18 169 b 199 -10 18 53 86 -10 b 385 169 313 -10 385 51 z m 218 618 l 218 186 b 201 114 218 129 217 114 b 185 186 188 114 185 129 l 185 618 b 201 690 185 675 188 690 b 218 618 217 690 218 675 z "},"ō":{"ha":403,"x_min":0,"x_max":0,"o":"m 69 974 l 69 861 l 333 861 l 333 974 z m 385 169 l 385 635 b 199 814 385 753 313 814 b 18 635 86 814 18 751 l 18 169 b 199 -10 18 53 86 -10 b 385 169 313 -10 385 51 z m 218 618 l 218 186 b 201 114 218 129 217 114 b 185 186 188 114 185 129 l 185 618 b 201 690 185 675 188 690 b 218 618 217 690 218 675 z "},"ø":{"ha":403,"x_min":0,"x_max":0,"o":"m 411 926 l 354 926 l 307 789 b 199 814 278 806 240 814 b 18 635 86 814 18 751 l 18 169 b 53 51 18 121 31 81 l -10 -128 l 47 -128 l 96 14 b 199 -10 124 -1 158 -10 b 385 169 313 -10 385 51 l 385 635 b 350 751 385 683 372 722 z m 185 618 b 201 690 185 675 188 690 b 218 618 217 690 218 675 l 218 532 l 185 436 z m 218 186 b 201 114 218 129 217 114 b 185 186 188 114 185 129 l 185 271 l 218 367 z "},"õ":{"ha":403,"x_min":0,"x_max":0,"o":"m 268 986 l 268 975 b 242 949 268 961 260 949 b 135 988 211 949 190 988 b 53 875 71 988 53 936 l 53 861 l 135 861 l 135 872 b 158 901 135 888 143 901 b 269 858 186 901 211 858 b 350 972 333 858 350 910 l 350 986 z m 385 169 l 385 635 b 199 814 385 753 313 814 b 18 635 86 814 18 751 l 18 169 b 199 -10 18 53 86 -10 b 385 169 313 -10 385 51 z m 218 618 l 218 186 b 201 114 218 129 217 114 b 185 186 188 114 185 129 l 185 618 b 201 690 185 675 188 690 b 218 618 217 690 218 675 z "},"œ":{"ha":606,"x_min":0,"x_max":0,"o":"m 588 376 l 588 642 b 401 814 588 754 515 814 b 300 792 363 814 328 807 b 199 814 272 807 238 814 b 18 635 86 814 18 751 l 18 169 b 199 -10 18 53 86 -10 b 300 11 238 -10 272 -3 b 401 -10 328 -3 361 -10 b 588 149 515 -10 588 50 l 588 339 l 421 339 l 421 149 b 403 108 421 121 418 108 b 386 149 389 108 386 121 l 386 376 z m 218 186 b 201 114 218 129 217 114 b 185 186 188 114 185 129 l 185 618 b 201 690 185 675 188 690 b 218 618 217 690 218 675 z m 386 644 b 404 690 386 671 389 690 b 421 644 418 690 421 674 l 421 481 l 386 481 z "},"p":{"ha":407,"x_min":0,"x_max":0,"o":"m 282 -10 b 389 165 360 -10 389 54 l 389 668 b 285 814 389 747 361 814 b 188 758 246 814 210 792 l 182 758 l 182 800 l 22 800 l 22 -306 l 189 -306 l 189 43 l 194 43 b 282 -10 203 29 228 -10 z m 206 110 b 189 181 192 110 189 117 l 189 618 b 206 690 189 675 190 690 b 222 618 219 690 222 675 l 222 181 b 206 110 222 117 221 110 z "},"þ":{"ha":407,"x_min":0,"x_max":0,"o":"m 282 -10 b 389 165 360 -10 389 54 l 389 668 b 285 814 389 747 361 814 b 194 758 253 814 217 792 l 189 758 l 189 1083 l 22 1083 l 22 -306 l 189 -306 l 189 43 l 194 43 b 282 -10 203 29 228 -10 z m 206 110 b 189 181 192 110 189 117 l 189 618 b 206 690 189 675 190 690 b 222 618 219 690 222 675 l 222 181 b 206 110 222 117 221 110 z "},"q":{"ha":407,"x_min":0,"x_max":0,"o":"m 125 -10 b 213 43 179 -10 204 29 l 218 43 l 218 -306 l 385 -306 l 385 800 l 239 800 l 225 758 l 219 758 b 122 814 197 792 161 814 b 18 668 46 814 18 747 l 18 165 b 125 -10 18 54 47 -10 z m 201 110 b 185 181 186 110 185 117 l 185 618 b 201 690 185 675 188 690 b 218 618 217 690 218 675 l 218 181 b 201 110 218 117 215 110 z "},"r":{"ha":407,"x_min":0,"x_max":0,"o":"m 22 0 l 189 0 l 189 617 b 206 686 189 674 192 686 b 222 617 221 686 222 674 l 222 501 l 389 501 l 389 685 b 297 814 389 750 371 814 b 183 757 247 814 203 776 l 182 757 l 182 800 l 22 800 z "},"ŕ":{"ha":407,"x_min":0,"x_max":0,"o":"m 167 850 l 336 1022 l 164 1022 l 72 850 z m 22 0 l 189 0 l 189 617 b 206 686 189 674 192 686 b 222 617 221 686 222 674 l 222 501 l 389 501 l 389 685 b 297 814 389 750 371 814 b 183 757 247 814 203 776 l 182 757 l 182 800 l 22 800 z "},"ř":{"ha":407,"x_min":0,"x_max":0,"o":"m 379 1036 l 285 1036 l 214 954 l 142 1036 l 47 1036 l 139 864 l 288 864 z m 22 0 l 189 0 l 189 617 b 206 686 189 674 192 686 b 222 617 221 686 222 674 l 222 501 l 389 501 l 389 685 b 297 814 389 750 371 814 b 183 757 247 814 203 776 l 182 757 l 182 800 l 22 800 z "},"ŗ":{"ha":407,"x_min":0,"x_max":0,"o":"m 297 814 b 183 757 247 814 203 776 l 182 757 l 182 800 l 22 800 l 22 0 l 189 0 l 189 617 b 206 686 189 674 192 686 b 222 617 221 686 222 674 l 222 501 l 389 501 l 389 685 b 297 814 389 750 371 814 z m 28 -194 l 93 -194 l 29 -367 l 113 -367 l 185 -206 l 185 -22 l 28 -22 z "},"s":{"ha":404,"x_min":0,"x_max":0,"o":"m 386 538 l 386 660 b 206 814 386 754 328 814 b 18 664 96 814 18 767 l 18 554 b 125 374 18 463 42 429 b 219 275 176 339 219 317 l 219 157 b 201 110 219 122 215 110 b 185 157 188 110 185 122 l 185 297 l 18 297 l 18 139 b 200 -10 18 51 81 -10 b 386 139 314 -10 386 47 l 386 268 b 265 483 386 406 363 424 b 185 588 210 518 185 546 l 185 638 b 201 689 185 665 185 689 b 219 638 219 689 219 665 l 219 538 z "},"ś":{"ha":404,"x_min":0,"x_max":0,"o":"m 165 850 l 335 1022 l 163 1022 l 71 850 z m 386 538 l 386 660 b 206 814 386 754 328 814 b 18 664 96 814 18 767 l 18 554 b 125 374 18 463 42 429 b 219 275 176 339 219 317 l 219 157 b 201 110 219 122 215 110 b 185 157 188 110 185 122 l 185 297 l 18 297 l 18 139 b 200 -10 18 51 81 -10 b 386 139 314 -10 386 47 l 386 268 b 265 483 386 406 363 424 b 185 588 210 518 185 546 l 185 638 b 201 689 185 665 185 689 b 219 638 219 689 219 665 l 219 538 z "},"š":{"ha":404,"x_min":0,"x_max":0,"o":"m 378 1036 l 283 1036 l 213 954 l 140 1036 l 46 1036 l 138 864 l 286 864 z m 386 538 l 386 660 b 206 814 386 754 328 814 b 18 664 96 814 18 767 l 18 554 b 125 374 18 463 42 429 b 219 275 176 339 219 317 l 219 157 b 201 110 219 122 215 110 b 185 157 188 110 185 122 l 185 297 l 18 297 l 18 139 b 200 -10 18 51 81 -10 b 386 139 314 -10 386 47 l 386 268 b 265 483 386 406 363 424 b 185 588 210 518 185 546 l 185 638 b 201 689 185 665 185 689 b 219 638 219 689 219 665 l 219 538 z "},"ş":{"ha":404,"x_min":0,"x_max":0,"o":"m 386 538 l 386 660 b 206 814 386 754 328 814 b 18 664 96 814 18 767 l 18 554 b 125 374 18 463 42 429 b 219 275 176 339 219 317 l 219 157 b 201 110 219 122 215 110 b 185 157 188 110 185 122 l 185 297 l 18 297 l 18 139 b 144 -4 18 67 61 11 l 76 -164 l 224 -164 l 251 -6 b 386 139 335 10 386 61 l 386 268 b 265 483 386 406 363 424 b 185 588 210 518 185 546 l 185 638 b 201 689 185 665 185 689 b 219 638 219 689 219 665 l 219 538 z "},"ș":{"ha":404,"x_min":0,"x_max":0,"o":"m 386 538 l 386 660 b 206 814 386 754 328 814 b 18 664 96 814 18 767 l 18 554 b 125 374 18 463 42 429 b 219 275 176 339 219 317 l 219 157 b 201 110 219 122 215 110 b 185 157 188 110 185 122 l 185 297 l 18 297 l 18 139 b 200 -10 18 51 81 -10 b 386 139 314 -10 386 47 l 386 268 b 265 483 386 406 363 424 b 185 588 210 518 185 546 l 185 638 b 201 689 185 665 185 689 b 219 638 219 689 219 665 l 219 538 z m 124 -194 l 189 -194 l 125 -367 l 208 -367 l 281 -206 l 281 -22 l 124 -22 z "},"ß":{"ha":407,"x_min":0,"x_max":0,"o":"m 313 568 l 313 575 b 388 758 375 607 388 643 l 386 899 b 200 1099 386 1019 344 1099 b 22 899 64 1099 22 1019 l 22 0 l 189 0 l 189 893 b 206 975 189 938 185 975 b 222 893 224 975 222 938 l 222 647 l 206 647 l 206 488 l 222 488 l 222 174 b 206 147 222 154 218 147 l 206 0 l 249 0 b 389 149 347 0 389 68 l 389 376 b 313 568 389 507 376 550 z "},"t":{"ha":347,"x_min":0,"x_max":0,"o":"m 329 640 l 329 800 l 243 800 l 243 992 l 76 992 l 76 800 l 22 800 l 22 640 l 76 640 l 76 171 b 197 0 78 11 122 0 l 308 0 l 308 151 l 293 151 b 243 200 254 151 243 158 l 243 640 z "},"ŧ":{"ha":347,"x_min":0,"x_max":0,"o":"m 329 640 l 329 800 l 243 800 l 243 992 l 76 992 l 76 800 l 22 800 l 22 640 l 76 640 l 76 468 l 22 468 l 22 331 l 76 331 l 76 171 b 197 0 78 11 122 0 l 308 0 l 308 151 l 293 151 b 243 200 254 151 243 158 l 243 331 l 329 331 l 329 468 l 243 468 l 243 640 z "},"ť":{"ha":514,"x_min":0,"x_max":0,"o":"m 344 1056 l 344 883 l 410 883 l 346 711 l 429 711 l 501 872 l 501 1056 z m 243 992 l 76 992 l 76 800 l 22 800 l 22 640 l 76 640 l 76 171 b 197 0 78 11 122 0 l 308 0 l 308 151 l 293 151 b 243 200 254 151 243 158 l 243 640 l 329 640 l 329 800 l 243 800 z "},"ţ":{"ha":347,"x_min":0,"x_max":0,"o":"m 329 640 l 329 800 l 243 800 l 243 992 l 76 992 l 76 800 l 22 800 l 22 640 l 76 640 l 76 171 b 125 13 78 72 94 31 l 50 -164 l 197 -164 l 225 0 l 308 0 l 308 151 l 293 151 b 243 200 254 151 243 158 l 243 640 z "},"ț":{"ha":347,"x_min":0,"x_max":0,"o":"m 329 640 l 329 800 l 243 800 l 243 992 l 76 992 l 76 800 l 22 800 l 22 640 l 76 640 l 76 171 b 197 0 78 11 122 0 l 308 0 l 308 151 l 293 151 b 243 200 254 151 243 158 l 243 640 z m 97 -194 l 163 -194 l 99 -367 l 182 -367 l 254 -206 l 254 -22 l 97 -22 z "},"u":{"ha":407,"x_min":0,"x_max":0,"o":"m 118 -10 b 225 36 161 -10 203 21 l 229 36 l 229 0 l 389 0 l 389 800 l 222 800 l 222 181 b 204 110 222 122 218 110 b 189 181 190 110 189 122 l 189 800 l 22 800 l 22 115 b 118 -10 22 50 40 -10 z "},"ú":{"ha":407,"x_min":0,"x_max":0,"o":"m 167 850 l 336 1022 l 164 1022 l 72 850 z m 118 -10 b 225 36 161 -10 203 21 l 229 36 l 229 0 l 389 0 l 389 800 l 222 800 l 222 181 b 204 110 222 122 218 110 b 189 181 190 110 189 122 l 189 800 l 22 800 l 22 115 b 118 -10 22 50 40 -10 z "},"û":{"ha":407,"x_min":0,"x_max":0,"o":"m 369 850 l 278 1022 l 129 1022 l 38 850 l 132 850 l 204 932 l 275 850 z m 118 -10 b 225 36 161 -10 203 21 l 229 36 l 229 0 l 389 0 l 389 800 l 222 800 l 222 181 b 204 110 222 122 218 110 b 189 181 190 110 189 122 l 189 800 l 22 800 l 22 115 b 118 -10 22 50 40 -10 z "},"ü":{"ha":407,"x_min":0,"x_max":0,"o":"m 71 954 l 71 833 l 189 833 l 189 954 z m 218 954 l 218 833 l 336 833 l 336 954 z m 118 -10 b 225 36 161 -10 203 21 l 229 36 l 229 0 l 389 0 l 389 800 l 222 800 l 222 181 b 204 110 222 122 218 110 b 189 181 190 110 189 122 l 189 800 l 22 800 l 22 115 b 118 -10 22 50 40 -10 z "},"ù":{"ha":407,"x_min":0,"x_max":0,"o":"m 242 850 l 336 850 l 244 1022 l 72 1022 z m 118 -10 b 225 36 161 -10 203 21 l 229 36 l 229 0 l 389 0 l 389 800 l 222 800 l 222 181 b 204 110 222 122 218 110 b 189 181 190 110 189 122 l 189 800 l 22 800 l 22 115 b 118 -10 22 50 40 -10 z "},"ű":{"ha":407,"x_min":0,"x_max":0,"o":"m 83 850 l 253 1022 l 81 1022 l -11 850 z m 264 850 l 433 1022 l 261 1022 l 169 850 z m 118 -10 b 225 36 161 -10 203 21 l 229 36 l 229 0 l 389 0 l 389 800 l 222 800 l 222 181 b 204 110 222 122 218 110 b 189 181 190 110 189 122 l 189 800 l 22 800 l 22 115 b 118 -10 22 50 40 -10 z "},"ū":{"ha":407,"x_min":0,"x_max":0,"o":"m 72 974 l 72 861 l 336 861 l 336 974 z m 118 -10 b 225 36 161 -10 203 21 l 229 36 l 229 0 l 389 0 l 389 800 l 222 800 l 222 181 b 204 110 222 122 218 110 b 189 181 190 110 189 122 l 189 800 l 22 800 l 22 115 b 118 -10 22 50 40 -10 z "},"ų":{"ha":407,"x_min":0,"x_max":0,"o":"m 222 800 l 222 181 b 204 110 222 122 218 110 b 189 181 190 110 189 122 l 189 800 l 22 800 l 22 115 b 118 -10 22 50 40 -10 b 225 36 161 -10 203 21 l 229 36 l 229 0 l 303 0 b 174 -172 226 -43 174 -97 b 349 -304 174 -257 229 -304 l 349 -206 b 265 -144 292 -206 265 -181 b 367 0 265 -107 303 -50 l 389 0 l 389 800 z "},"ů":{"ha":407,"x_min":0,"x_max":0,"o":"m 204 840 b 301 939 263 842 301 881 b 204 1038 301 997 263 1036 b 106 939 144 1036 106 997 b 204 840 106 881 144 842 z m 204 901 b 169 939 183 901 169 917 b 204 976 169 961 183 976 b 238 939 224 976 238 961 b 204 901 238 917 224 901 z m 118 -10 b 225 36 161 -10 203 21 l 229 36 l 229 0 l 389 0 l 389 800 l 222 800 l 222 181 b 204 110 222 122 218 110 b 189 181 190 110 189 122 l 189 800 l 22 800 l 22 115 b 118 -10 22 50 40 -10 z "},"v":{"ha":401,"x_min":0,"x_max":0,"o":"m 397 800 l 231 800 l 203 260 l 199 260 l 171 800 l 4 800 l 97 0 l 304 0 z "},"w":{"ha":592,"x_min":0,"x_max":0,"o":"m 97 0 l 267 0 l 296 257 l 299 257 l 326 0 l 494 0 l 588 800 l 421 800 l 397 268 l 394 268 l 365 800 l 226 800 l 199 268 l 194 268 l 171 800 l 4 800 z "},"ẃ":{"ha":592,"x_min":0,"x_max":0,"o":"m 258 850 l 428 1022 l 256 1022 l 164 850 z m 97 0 l 267 0 l 296 257 l 299 257 l 326 0 l 494 0 l 588 800 l 421 800 l 397 268 l 394 268 l 365 800 l 226 800 l 199 268 l 194 268 l 171 800 l 4 800 z "},"ŵ":{"ha":592,"x_min":0,"x_max":0,"o":"m 461 850 l 369 1022 l 221 1022 l 129 850 l 224 850 l 296 932 l 367 850 z m 97 0 l 267 0 l 296 257 l 299 257 l 326 0 l 494 0 l 588 800 l 421 800 l 397 268 l 394 268 l 365 800 l 226 800 l 199 268 l 194 268 l 171 800 l 4 800 z "},"ẅ":{"ha":592,"x_min":0,"x_max":0,"o":"m 163 954 l 163 833 l 281 833 l 281 954 z m 310 954 l 310 833 l 428 833 l 428 954 z m 97 0 l 267 0 l 296 257 l 299 257 l 326 0 l 494 0 l 588 800 l 421 800 l 397 268 l 394 268 l 365 800 l 226 800 l 199 268 l 194 268 l 171 800 l 4 800 z "},"ẁ":{"ha":592,"x_min":0,"x_max":0,"o":"m 333 850 l 428 850 l 336 1022 l 164 1022 z m 97 0 l 267 0 l 296 257 l 299 257 l 326 0 l 494 0 l 588 800 l 421 800 l 397 268 l 394 268 l 365 800 l 226 800 l 199 268 l 194 268 l 171 800 l 4 800 z "},"x":{"ha":388,"x_min":0,"x_max":0,"o":"m 383 800 l 217 800 l 197 553 l 192 553 l 171 800 l 4 800 l 72 390 l 4 0 l 171 0 l 192 232 l 197 232 l 217 0 l 383 0 l 315 390 z "},"y":{"ha":396,"x_min":0,"x_max":0,"o":"m 14 -306 l 117 -306 b 276 -96 229 -306 258 -231 l 392 800 l 225 800 l 200 296 l 196 296 l 171 800 l 4 800 l 108 -24 b 78 -154 122 -135 113 -154 l 14 -154 z "},"ý":{"ha":396,"x_min":0,"x_max":0,"o":"m 161 850 l 331 1022 l 158 1022 l 67 850 z m 14 -306 l 117 -306 b 276 -96 229 -306 258 -231 l 392 800 l 225 800 l 200 296 l 196 296 l 171 800 l 4 800 l 108 -24 b 78 -154 122 -135 113 -154 l 14 -154 z "},"ŷ":{"ha":396,"x_min":0,"x_max":0,"o":"m 364 850 l 272 1022 l 124 1022 l 32 850 l 126 850 l 199 932 l 269 850 z m 14 -306 l 117 -306 b 276 -96 229 -306 258 -231 l 392 800 l 225 800 l 200 296 l 196 296 l 171 800 l 4 800 l 108 -24 b 78 -154 122 -135 113 -154 l 14 -154 z "},"ÿ":{"ha":396,"x_min":0,"x_max":0,"o":"m 65 954 l 65 833 l 183 833 l 183 954 z m 213 954 l 213 833 l 331 833 l 331 954 z m 14 -306 l 117 -306 b 276 -96 229 -306 258 -231 l 392 800 l 225 800 l 200 296 l 196 296 l 171 800 l 4 800 l 108 -24 b 78 -154 122 -135 113 -154 l 14 -154 z "},"ỳ":{"ha":396,"x_min":0,"x_max":0,"o":"m 236 850 l 331 850 l 239 1022 l 67 1022 z m 14 -306 l 117 -306 b 276 -96 229 -306 258 -231 l 392 800 l 225 800 l 200 296 l 196 296 l 171 800 l 4 800 l 108 -24 b 78 -154 122 -135 113 -154 l 14 -154 z "},"z":{"ha":375,"x_min":0,"x_max":0,"o":"m 357 800 l 22 800 l 22 640 l 196 640 l 22 158 l 22 0 l 357 0 l 357 158 l 183 158 l 357 640 z "},"ź":{"ha":375,"x_min":0,"x_max":0,"o":"m 150 850 l 319 1022 l 147 1022 l 56 850 z m 357 800 l 22 800 l 22 640 l 196 640 l 22 158 l 22 0 l 357 0 l 357 158 l 183 158 l 357 640 z "},"ž":{"ha":375,"x_min":0,"x_max":0,"o":"m 363 1036 l 268 1036 l 197 954 l 125 1036 l 31 1036 l 122 864 l 271 864 z m 357 800 l 22 800 l 22 640 l 196 640 l 22 158 l 22 0 l 357 0 l 357 158 l 183 158 l 357 640 z "},"ż":{"ha":375,"x_min":0,"x_max":0,"o":"m 99 990 l 99 833 l 275 833 l 275 990 z m 357 800 l 22 800 l 22 640 l 196 640 l 22 158 l 22 0 l 357 0 l 357 158 l 183 158 l 357 640 z "},"⁄":{"ha":206,"x_min":0,"x_max":0,"o":"m -42 0 l 61 0 l 247 1056 l 144 1056 z "},"½":{"ha":715,"x_min":0,"x_max":0,"o":"m 106 472 l 217 472 l 217 1085 l 117 1085 l 14 967 l 14 814 b 101 926 43 850 72 885 l 106 926 z m 189 0 l 292 0 l 478 1056 l 375 1056 z m 450 0 l 701 0 l 701 104 l 564 104 b 631 232 564 149 600 189 b 693 417 661 276 693 329 l 693 489 b 571 618 693 604 619 618 b 450 492 521 618 450 603 l 450 378 l 561 378 l 561 508 b 572 524 561 519 565 524 b 582 508 579 524 582 519 l 582 429 b 540 286 582 368 564 324 b 450 108 499 221 450 178 z "},"¼":{"ha":682,"x_min":0,"x_max":0,"o":"m 106 472 l 217 472 l 217 1085 l 117 1085 l 14 967 l 14 814 b 101 926 43 850 72 885 l 106 926 z m 189 0 l 292 0 l 478 1056 l 375 1056 z m 533 0 l 644 0 l 644 86 l 668 86 l 668 190 l 644 190 l 644 613 l 544 613 l 369 201 l 369 86 l 533 86 z m 472 190 b 533 328 494 231 515 292 l 533 190 z "},"¾":{"ha":742,"x_min":0,"x_max":0,"o":"m 257 849 l 257 961 b 135 1090 257 1076 183 1090 b 14 967 85 1090 14 1078 l 14 850 l 125 850 l 125 981 b 136 996 125 992 129 996 b 146 981 143 996 146 992 l 146 900 b 121 824 146 850 150 824 l 93 824 l 93 719 l 121 719 b 146 646 150 719 146 696 l 146 567 b 136 551 146 557 143 551 b 125 567 129 551 125 557 l 125 696 l 14 696 l 14 579 b 135 456 14 468 85 456 b 257 585 183 456 257 469 l 257 697 b 208 772 257 738 242 749 l 208 774 b 257 849 242 797 257 808 z m 239 0 l 342 0 l 528 1056 l 425 1056 z m 583 0 l 694 0 l 694 86 l 718 86 l 718 190 l 694 190 l 694 613 l 594 613 l 419 201 l 419 86 l 583 86 z m 522 190 b 583 328 544 231 565 292 l 583 190 z "},"⅛":{"ha":707,"x_min":0,"x_max":0,"o":"m 106 472 l 217 472 l 217 1085 l 117 1085 l 14 967 l 14 814 b 101 926 43 850 72 885 l 106 926 z m 189 0 l 292 0 l 478 1056 l 375 1056 z m 571 -15 b 693 107 619 -15 693 -7 l 693 211 b 642 315 693 260 679 292 b 693 406 679 326 693 357 l 693 497 b 571 618 693 600 619 618 b 450 497 521 618 450 599 l 450 406 b 500 315 450 357 464 326 b 450 211 464 292 450 260 l 450 107 b 571 -15 450 -7 521 -15 z m 572 364 b 561 378 565 364 561 368 l 561 508 b 572 524 561 519 565 524 b 582 508 579 524 582 519 l 582 378 b 572 364 582 368 579 364 z m 572 79 b 561 94 565 79 561 83 l 561 239 b 572 254 561 250 565 254 b 582 239 579 254 582 250 l 582 94 b 572 79 582 83 579 79 z "},"⅜":{"ha":757,"x_min":0,"x_max":0,"o":"m 257 849 l 257 961 b 135 1090 257 1076 183 1090 b 14 967 85 1090 14 1078 l 14 850 l 125 850 l 125 981 b 136 996 125 992 129 996 b 146 981 143 996 146 992 l 146 900 b 121 824 146 850 150 824 l 93 824 l 93 719 l 121 719 b 146 646 150 719 146 696 l 146 567 b 136 551 146 557 143 551 b 125 567 129 551 125 557 l 125 696 l 14 696 l 14 579 b 135 456 14 468 85 456 b 257 585 183 456 257 469 l 257 697 b 208 772 257 738 242 749 l 208 774 b 257 849 242 797 257 808 z m 239 0 l 342 0 l 528 1056 l 425 1056 z m 621 -15 b 743 107 669 -15 743 -7 l 743 211 b 692 315 743 260 729 292 b 743 406 729 326 743 357 l 743 497 b 621 618 743 600 669 618 b 500 497 571 618 500 599 l 500 406 b 550 315 500 357 514 326 b 500 211 514 292 500 260 l 500 107 b 621 -15 500 -7 571 -15 z m 622 364 b 611 378 615 364 611 368 l 611 508 b 622 524 611 519 615 524 b 632 508 629 524 632 519 l 632 378 b 622 364 632 368 629 364 z m 622 79 b 611 94 615 79 611 83 l 611 239 b 622 254 611 250 615 254 b 632 239 629 254 632 250 l 632 94 b 622 79 632 83 629 79 z "},"⅝":{"ha":747,"x_min":0,"x_max":0,"o":"m 135 456 b 257 593 183 456 257 478 l 257 744 b 169 869 257 839 226 869 b 111 839 140 869 126 860 l 108 839 l 108 981 l 244 981 l 244 1085 l 14 1085 l 14 767 l 85 742 b 128 774 94 754 110 774 b 146 671 150 774 146 742 l 146 567 b 136 551 146 558 143 551 b 125 567 129 551 125 558 l 125 696 l 14 696 l 14 590 b 135 456 14 479 85 456 z m 229 0 l 332 0 l 518 1056 l 415 1056 z m 611 -15 b 733 107 660 -15 733 -7 l 733 211 b 682 315 733 260 719 292 b 733 406 719 326 733 357 l 733 497 b 611 618 733 600 660 618 b 490 497 561 618 490 599 l 490 406 b 540 315 490 357 504 326 b 490 211 504 292 490 260 l 490 107 b 611 -15 490 -7 561 -15 z m 613 364 b 601 378 606 364 601 368 l 601 508 b 613 524 601 519 606 524 b 622 508 619 524 622 519 l 622 378 b 613 364 622 368 619 364 z m 613 79 b 601 94 606 79 601 83 l 601 239 b 613 254 601 250 606 254 b 622 239 619 254 622 250 l 622 94 b 613 79 622 83 619 79 z "},"⅞":{"ha":671,"x_min":0,"x_max":0,"o":"m 275 1085 l 14 1085 l 14 982 l 175 982 l 57 472 l 157 472 l 275 972 z m 192 0 l 294 0 l 481 1056 l 378 1056 z m 549 -15 b 671 107 597 -15 671 -7 l 671 211 b 619 315 671 260 657 292 b 671 406 657 326 671 357 l 671 497 b 549 618 671 600 597 618 b 428 497 499 618 428 599 l 428 406 b 478 315 428 357 442 326 b 428 211 442 292 428 260 l 428 107 b 549 -15 428 -7 499 -15 z m 550 364 b 539 378 543 364 539 368 l 539 508 b 550 524 539 519 543 524 b 560 508 557 524 560 519 l 560 378 b 550 364 560 368 557 364 z m 550 79 b 539 94 543 79 539 83 l 539 239 b 550 254 539 250 543 254 b 560 239 557 254 560 250 l 560 94 b 550 79 560 83 557 79 z "},"*":{"ha":481,"x_min":0,"x_max":0,"o":"m 467 799 l 467 864 l 382 864 l 308 858 l 363 907 l 422 967 l 376 1013 l 317 953 l 271 900 l 275 971 l 275 1056 l 210 1056 l 210 971 l 214 896 l 164 953 l 104 1013 l 58 967 l 118 907 l 172 858 l 99 864 l 14 864 l 14 799 l 99 799 l 171 803 l 115 754 l 56 694 l 101 649 l 161 708 l 214 769 l 210 686 l 210 601 l 275 601 l 275 686 l 269 765 l 319 708 l 379 649 l 425 694 l 365 754 l 310 803 l 382 799 z m 235 810 l 222 822 l 222 836 l 233 847 l 247 847 l 258 836 l 258 822 l 246 810 z "},"\\":{"ha":476,"x_min":0,"x_max":0,"o":"m 469 0 l 189 1054 l 7 1054 l 288 0 z "},"·":{"ha":214,"x_min":0,"x_max":0,"o":"m 14 439 l 14 267 l 200 267 l 200 439 z "},"•":{"ha":301,"x_min":0,"x_max":0,"o":"m 14 493 l 14 246 l 288 246 l 288 493 z "},":":{"ha":182,"x_min":0,"x_max":0,"o":"m 13 550 l 13 378 l 169 378 l 169 550 z m 13 172 l 13 0 l 169 0 l 169 172 z "},",":{"ha":182,"x_min":0,"x_max":0,"o":"m 13 172 l 13 0 l 78 0 l 14 -172 l 97 -172 l 169 -11 l 169 172 z "},"…":{"ha":546,"x_min":0,"x_max":0,"o":"m 13 172 l 13 0 l 169 0 l 169 172 z m 194 172 l 194 0 l 351 0 l 351 172 z m 376 172 l 376 0 l 533 0 l 533 172 z "},"!":{"ha":213,"x_min":0,"x_max":0,"o":"m 14 1056 l 43 225 l 169 225 l 199 1056 z m 28 172 l 28 0 l 185 0 l 185 172 z "},"¡":{"ha":213,"x_min":0,"x_max":0,"o":"m 28 883 l 185 883 l 185 1056 l 28 1056 z m 14 0 l 199 0 l 169 831 l 43 831 z "},"#":{"ha":976,"x_min":0,"x_max":0,"o":"m 969 622 l 969 799 l 806 799 l 863 1054 l 681 1054 l 624 799 l 481 799 l 538 1054 l 356 1054 l 299 799 l 103 799 l 103 621 l 260 621 l 217 426 l 7 426 l 7 249 l 178 249 l 122 0 l 304 0 l 360 250 l 503 250 l 447 0 l 629 0 l 685 251 l 874 251 l 874 426 l 724 426 l 767 622 z m 542 426 l 399 426 l 442 621 l 585 622 z "},".":{"ha":182,"x_min":0,"x_max":0,"o":"m 13 172 l 13 0 l 169 0 l 169 172 z "},"?":{"ha":411,"x_min":0,"x_max":0,"o":"m 139 225 l 269 225 l 269 304 b 397 738 271 469 397 613 l 397 826 b 208 1071 397 996 328 1071 b 18 826 90 1071 18 997 l 18 640 l 189 640 l 189 864 b 207 901 189 889 192 901 b 224 864 221 901 224 889 l 224 726 b 139 401 224 621 140 529 z m 128 172 l 128 0 l 285 0 l 285 172 z "},"¿":{"ha":407,"x_min":0,"x_max":0,"o":"m 279 883 l 279 1056 l 122 1056 l 122 883 z m 268 831 l 138 831 l 138 751 b 10 318 136 586 10 443 l 10 229 b 199 -15 10 60 79 -15 b 389 229 317 -15 389 58 l 389 415 l 218 415 l 218 192 b 200 154 218 167 215 154 b 183 192 186 154 183 167 l 183 329 b 268 654 183 435 267 526 z "},"\"":{"ha":319,"x_min":0,"x_max":0,"o":"m 14 883 l 29 631 l 131 631 l 146 883 l 146 1056 l 14 1056 z m 174 1056 l 174 883 l 189 631 l 290 631 l 306 883 l 306 1056 z "},"'":{"ha":160,"x_min":0,"x_max":0,"o":"m 14 1056 l 14 883 l 29 631 l 131 631 l 146 883 l 146 1056 z "},";":{"ha":182,"x_min":0,"x_max":0,"o":"m 13 550 l 13 378 l 169 378 l 169 550 z m 13 0 l 78 0 l 14 -172 l 97 -172 l 169 -11 l 169 172 l 13 172 z "},"/":{"ha":476,"x_min":0,"x_max":0,"o":"m 7 0 l 189 0 l 469 1054 l 288 1054 z "},"_":{"ha":696,"x_min":0,"x_max":0,"o":"m 0 -179 l 557 -179 l 557 -53 l 0 -53 z "},"{":{"ha":406,"x_min":0,"x_max":0,"o":"m 290 -161 l 385 -161 l 385 -19 l 322 -19 b 260 264 244 -19 260 110 b 144 482 260 347 256 453 l 144 496 b 260 713 256 524 260 629 b 322 996 260 865 244 996 l 385 996 l 385 1138 l 290 1138 b 117 881 139 1138 117 1054 b 67 557 117 608 129 557 l 21 557 l 21 418 l 67 418 b 117 96 129 418 117 368 b 290 -161 117 -78 139 -161 z "},"}":{"ha":406,"x_min":0,"x_max":0,"o":"m 115 -161 b 289 96 267 -161 289 -78 b 339 418 289 368 276 418 l 385 418 l 385 557 l 339 557 b 289 881 276 557 289 608 b 115 1138 289 1054 267 1138 l 21 1138 l 21 996 l 83 996 b 146 713 161 996 146 865 b 261 496 146 629 150 524 l 261 482 b 146 264 150 453 146 347 b 83 -19 146 110 161 -19 l 21 -19 l 21 -161 z "},"[":{"ha":342,"x_min":0,"x_max":0,"o":"m 21 -161 l 321 -161 l 321 -3 l 196 -3 l 196 979 l 321 979 l 321 1138 l 21 1138 z "},"]":{"ha":342,"x_min":0,"x_max":0,"o":"m 321 -161 l 321 1138 l 21 1138 l 21 979 l 146 979 l 146 -3 l 21 -3 l 21 -161 z "},"(":{"ha":372,"x_min":0,"x_max":0,"o":"m 176 -161 l 351 -161 b 197 501 244 83 193 290 b 351 1138 200 700 244 886 l 176 1138 b 21 500 74 925 22 713 b 176 -161 19 279 65 71 z "},")":{"ha":372,"x_min":0,"x_max":0,"o":"m 196 -161 b 351 500 307 71 353 279 b 196 1138 350 713 299 925 l 21 1138 b 175 501 128 886 172 700 b 21 -161 179 290 128 83 z "},"—":{"ha":585,"x_min":0,"x_max":0,"o":"m 14 307 l 571 307 l 571 433 l 14 433 z "},"–":{"ha":415,"x_min":0,"x_max":0,"o":"m 14 315 l 401 315 l 401 425 l 14 425 z "},"-":{"ha":251,"x_min":0,"x_max":0,"o":"m 14 308 l 238 308 l 238 432 l 14 432 z "},"«":{"ha":550,"x_min":0,"x_max":0,"o":"m 174 667 l 18 382 l 18 368 l 174 83 l 333 83 l 178 375 l 333 667 z m 372 667 l 217 382 l 217 368 l 372 83 l 532 83 l 376 375 l 532 667 z "},"»":{"ha":550,"x_min":0,"x_max":0,"o":"m 178 667 l 18 667 l 174 375 l 18 83 l 178 83 l 333 368 l 333 382 z m 376 667 l 217 667 l 372 375 l 217 83 l 376 83 l 532 368 l 532 382 z "},"‹":{"ha":351,"x_min":0,"x_max":0,"o":"m 174 667 l 18 382 l 18 368 l 174 83 l 333 83 l 178 375 l 333 667 z "},"›":{"ha":351,"x_min":0,"x_max":0,"o":"m 178 667 l 18 667 l 174 375 l 18 83 l 178 83 l 333 368 l 333 382 z "},"„":{"ha":364,"x_min":0,"x_max":0,"o":"m 13 0 l 78 0 l 14 -172 l 97 -172 l 169 -11 l 169 172 l 13 172 z m 194 172 l 194 0 l 260 0 l 196 -172 l 279 -172 l 351 -11 l 351 172 z "},"“":{"ha":364,"x_min":0,"x_max":0,"o":"m 168 1056 l 85 1056 l 13 894 l 13 711 l 169 711 l 169 883 l 104 883 z m 286 883 l 350 1056 l 267 1056 l 194 894 l 194 711 l 351 711 l 351 883 z "},"”":{"ha":364,"x_min":0,"x_max":0,"o":"m 13 883 l 78 883 l 14 711 l 97 711 l 169 872 l 169 1056 l 13 1056 z m 194 1056 l 194 883 l 260 883 l 196 711 l 279 711 l 351 872 l 351 1056 z "},"‘":{"ha":182,"x_min":0,"x_max":0,"o":"m 104 883 l 168 1056 l 85 1056 l 13 894 l 13 711 l 169 711 l 169 883 z "},"’":{"ha":182,"x_min":0,"x_max":0,"o":"m 13 1056 l 13 883 l 78 883 l 14 711 l 97 711 l 169 872 l 169 1056 z "},"‚":{"ha":210,"x_min":0,"x_max":0,"o":"m 13 172 l 13 0 l 78 0 l 14 -172 l 97 -172 l 169 -11 l 169 172 z "}," ":{"ha":203,"x_min":0,"x_max":0,"o":""}," ":{"ha":139,"x_min":0,"x_max":0,"o":""},"¢":{"ha":314,"x_min":0,"x_max":0,"o":"m 296 469 l 296 639 b 213 776 296 707 264 756 l 213 929 l 101 929 l 101 778 b 18 639 50 757 18 707 l 18 244 b 101 119 18 188 50 139 l 101 -14 l 213 -14 l 213 121 b 296 244 264 140 296 188 l 296 438 l 168 438 l 168 244 b 157 219 168 228 167 219 b 146 244 147 219 146 228 l 146 650 b 157 678 146 668 147 678 b 168 650 167 678 168 668 l 168 469 z "},"¤":{"ha":533,"x_min":0,"x_max":0,"o":"m 404 592 l 404 597 l 515 754 l 397 836 l 324 731 b 265 743 307 739 286 743 b 208 732 244 743 225 739 l 136 836 l 18 754 l 128 599 l 128 592 l 128 224 l 18 65 l 136 -17 l 200 75 b 265 60 219 65 242 60 b 332 75 290 60 313 65 l 397 -17 l 515 65 l 404 225 z m 268 172 b 257 225 256 172 257 178 l 257 576 b 268 631 257 621 258 631 b 278 576 278 631 278 621 l 278 225 b 268 172 278 178 278 172 z "},"$":{"ha":339,"x_min":0,"x_max":0,"o":"m 321 578 l 321 692 b 225 874 321 794 286 853 l 225 992 l 114 992 l 114 872 b 18 701 51 849 18 783 l 18 586 b 103 397 18 499 32 457 b 185 293 150 356 185 331 l 185 172 b 169 133 185 143 181 133 b 156 172 158 133 156 143 l 156 300 l 18 300 l 18 171 b 114 4 18 69 53 19 l 114 -158 l 225 -158 l 225 6 b 321 190 286 28 321 89 l 321 269 b 231 492 321 403 307 419 b 156 590 190 528 156 563 l 156 700 b 169 736 156 722 158 736 b 185 700 181 736 185 722 l 185 578 z "},"€":{"ha":396,"x_min":0,"x_max":0,"o":"m 378 611 l 378 675 b 224 879 378 819 319 879 b 74 675 128 879 74 818 l 74 561 l 18 561 l 18 465 l 74 465 l 74 417 l 18 417 l 18 321 l 74 321 l 74 181 b 224 -7 74 39 128 -7 b 378 197 319 -7 378 53 l 378 263 l 242 263 l 242 165 b 226 131 242 142 239 131 b 211 165 213 131 211 140 l 211 321 l 326 321 l 326 415 l 211 415 l 211 465 l 326 465 l 326 560 l 211 560 l 211 700 b 226 733 211 722 213 733 b 242 700 239 733 242 722 l 242 611 z "},"£":{"ha":399,"x_min":0,"x_max":0,"o":"m 244 319 l 244 124 l 176 124 b 203 365 214 150 206 263 l 317 365 l 317 478 l 203 478 l 203 700 b 218 733 203 722 206 733 b 233 700 231 733 233 722 l 233 532 l 369 532 l 369 675 b 217 879 369 819 313 879 b 65 675 121 879 65 825 l 68 478 l 18 478 l 18 365 l 69 365 b 31 129 71 272 78 147 l 31 -7 l 381 -7 l 381 319 z "},"¥":{"ha":443,"x_min":0,"x_max":0,"o":"m 425 858 l 286 858 b 222 492 265 736 244 614 l 221 492 b 157 858 199 614 178 736 l 18 858 l 126 415 l 56 415 l 56 306 l 150 306 l 150 272 l 56 272 l 56 161 l 150 161 l 150 14 l 294 14 l 294 161 l 388 161 l 388 272 l 294 272 l 294 306 l 388 306 l 388 415 l 318 415 z "},"+":{"ha":453,"x_min":0,"x_max":0,"o":"m 435 431 l 290 431 l 290 575 l 164 575 l 164 431 l 18 431 l 18 304 l 164 304 l 164 158 l 290 158 l 290 304 l 435 304 z "},"−":{"ha":453,"x_min":0,"x_max":0,"o":"m 18 307 l 435 307 l 435 433 l 18 433 z "},"×":{"ha":421,"x_min":0,"x_max":0,"o":"m 403 282 l 300 386 l 401 488 l 313 578 l 211 475 l 108 578 l 19 488 l 121 386 l 18 282 l 107 193 l 211 297 l 314 193 z "},"÷":{"ha":453,"x_min":0,"x_max":0,"o":"m 149 701 l 149 529 l 306 529 l 306 701 z m 18 371 l 435 371 l 435 497 l 18 497 z m 149 324 l 149 151 l 306 151 l 306 324 z "},"=":{"ha":453,"x_min":0,"x_max":0,"o":"m 18 432 l 435 432 l 435 558 l 18 558 z m 18 224 l 435 224 l 435 350 l 18 350 z "},"≠":{"ha":453,"x_min":0,"x_max":0,"o":"m 435 432 l 435 558 l 347 558 l 408 736 l 288 736 l 225 558 l 18 558 l 18 432 l 182 432 l 153 350 l 18 350 l 18 224 l 108 224 l 44 40 l 167 40 l 231 224 l 435 224 l 435 350 l 274 350 l 303 432 z "},">":{"ha":385,"x_min":0,"x_max":0,"o":"m 18 588 l 18 443 l 221 367 l 221 361 l 18 282 l 18 139 l 367 318 l 367 408 z "},"<":{"ha":385,"x_min":0,"x_max":0,"o":"m 367 588 l 18 408 l 18 318 l 367 139 l 367 282 l 164 361 l 164 367 l 367 443 z "},"≥":{"ha":453,"x_min":0,"x_max":0,"o":"m 194 236 l 408 388 l 408 450 l 18 726 l 18 582 l 276 422 l 276 417 l 18 254 l 18 110 l 435 110 l 435 236 z "},"≤":{"ha":453,"x_min":0,"x_max":0,"o":"m 435 582 l 435 726 l 44 450 l 44 388 l 258 236 l 18 236 l 18 110 l 435 110 l 435 254 l 176 417 l 176 422 z "},"±":{"ha":453,"x_min":0,"x_max":0,"o":"m 435 360 l 435 486 l 290 486 l 290 631 l 164 631 l 164 486 l 18 486 l 18 360 l 164 360 l 164 250 l 18 250 l 18 124 l 435 124 l 435 250 l 290 250 l 290 360 z "},"≈":{"ha":442,"x_min":0,"x_max":0,"o":"m 326 590 l 326 576 b 289 533 326 547 311 533 b 140 603 238 533 215 603 b 18 449 76 603 18 553 l 18 438 l 115 438 l 115 449 b 151 497 115 478 128 497 b 306 425 199 497 219 425 b 424 576 369 425 424 465 l 424 590 z m 326 354 l 326 340 b 289 297 326 311 311 297 b 140 367 238 297 215 367 b 18 213 76 367 18 317 l 18 201 l 115 201 l 115 213 b 151 261 115 242 128 261 b 306 189 199 261 219 189 b 424 340 369 189 424 229 l 424 354 z "},"~":{"ha":442,"x_min":0,"x_max":0,"o":"m 326 458 l 326 444 b 289 401 326 415 311 401 b 140 471 238 401 215 471 b 18 317 76 471 18 421 l 18 306 l 115 306 l 115 317 b 151 365 115 346 128 365 b 306 293 199 365 219 293 b 424 444 369 293 424 333 l 424 458 z "},"¬":{"ha":453,"x_min":0,"x_max":0,"o":"m 435 431 l 18 431 l 18 304 l 308 304 l 308 111 l 435 111 z "},"∅":{"ha":597,"x_min":0,"x_max":0,"o":"m 579 1008 l 483 1051 l 456 992 b 297 1068 418 1061 350 1068 b 117 864 222 1068 117 1051 l 117 264 l 18 53 l 114 8 l 142 68 b 297 -8 178 0 244 -8 b 481 196 372 -8 481 7 l 481 796 z m 281 851 b 297 926 281 915 286 926 b 317 851 310 926 317 915 l 317 693 l 281 617 z m 317 172 b 300 132 317 144 311 132 b 281 172 288 132 281 144 l 281 367 l 317 444 z "},"%":{"ha":747,"x_min":0,"x_max":0,"o":"m 135 1090 b 14 961 85 1090 14 1075 l 14 586 b 135 457 14 472 85 457 b 257 586 183 457 257 471 l 257 961 b 135 1090 257 1076 183 1090 z m 229 0 l 332 0 l 518 1056 l 415 1056 z m 136 551 b 125 567 129 551 125 556 l 125 981 b 136 996 125 992 129 996 b 146 981 143 996 146 992 l 146 567 b 136 551 146 556 143 551 z m 611 618 b 490 489 561 618 490 603 l 490 114 b 611 -15 490 0 561 -15 b 733 114 660 -15 733 -1 l 733 489 b 611 618 733 604 660 618 z m 613 79 b 601 94 606 79 601 83 l 601 508 b 613 524 601 519 606 524 b 622 508 619 524 622 519 l 622 94 b 613 79 622 83 619 79 z "},"‰":{"ha":1018,"x_min":0,"x_max":0,"o":"m 135 1090 b 14 961 85 1090 14 1075 l 14 586 b 135 457 14 472 85 457 b 257 586 183 457 257 471 l 257 961 b 135 1090 257 1076 183 1090 z m 229 0 l 332 0 l 518 1056 l 415 1056 z m 136 551 b 125 567 129 551 125 556 l 125 981 b 136 996 125 992 129 996 b 146 981 143 996 146 992 l 146 567 b 136 551 146 556 143 551 z m 611 618 b 490 489 561 618 490 603 l 490 114 b 611 -15 490 0 561 -15 b 733 114 660 -15 733 -1 l 733 489 b 611 618 733 604 660 618 z m 882 618 b 761 489 832 618 761 603 l 761 114 b 882 -15 761 0 832 -15 b 1004 114 931 -15 1004 -1 l 1004 489 b 882 618 1004 604 931 618 z m 613 79 b 601 94 606 79 601 83 l 601 508 b 613 524 601 519 606 524 b 622 508 619 524 622 519 l 622 94 b 613 79 622 83 619 79 z m 883 79 b 872 94 876 79 872 83 l 872 508 b 883 524 872 519 876 524 b 893 508 890 524 893 519 l 893 94 b 883 79 893 83 890 79 z "},"↑":{"ha":314,"x_min":0,"x_max":0,"o":"m 303 832 l 158 1056 l 11 832 l 108 832 l 108 0 l 208 0 l 208 832 z "},"↗":{"ha":697,"x_min":0,"x_max":0,"o":"m 686 1021 l 460 967 l 533 889 l 11 97 l 88 17 l 610 808 l 683 732 z "},"→":{"ha":867,"x_min":0,"x_max":0,"o":"m 856 483 l 676 667 l 676 546 l 11 546 l 11 421 l 676 421 l 676 301 z "},"↘":{"ha":697,"x_min":0,"x_max":0,"o":"m 686 17 l 683 306 l 610 229 l 88 1021 l 11 940 l 533 149 l 460 71 z "},"↓":{"ha":314,"x_min":0,"x_max":0,"o":"m 208 224 l 208 1056 l 108 1056 l 108 224 l 11 224 l 158 0 l 303 224 z "},"↙":{"ha":697,"x_min":0,"x_max":0,"o":"m 686 940 l 610 1021 l 88 229 l 14 306 l 11 17 l 238 71 l 164 149 z "},"←":{"ha":867,"x_min":0,"x_max":0,"o":"m 856 546 l 190 546 l 190 667 l 11 483 l 190 301 l 190 421 l 856 421 z "},"↖":{"ha":697,"x_min":0,"x_max":0,"o":"m 686 97 l 164 889 l 238 967 l 11 1021 l 14 732 l 88 808 l 610 17 z "},"↔":{"ha":944,"x_min":0,"x_max":0,"o":"m 933 483 l 754 667 l 754 546 l 190 546 l 190 667 l 11 483 l 190 301 l 190 421 l 754 421 l 754 301 z "},"↕":{"ha":314,"x_min":0,"x_max":0,"o":"m 208 224 l 208 832 l 303 832 l 158 1056 l 11 832 l 108 832 l 108 224 l 11 224 l 158 0 l 303 224 z "},"@":{"ha":639,"x_min":0,"x_max":0,"o":"m 319 972 b 18 679 160 972 18 910 l 18 101 b 315 -192 18 -129 163 -192 b 538 -112 425 -192 481 -160 l 489 -58 b 317 -118 456 -86 419 -118 b 93 101 182 -118 93 -62 l 93 679 b 319 899 93 844 182 899 b 546 679 458 899 546 844 l 546 111 b 497 111 546 50 497 56 l 497 800 l 344 800 l 344 758 l 339 758 b 240 814 318 790 289 814 b 135 668 161 814 135 749 l 135 165 b 239 -10 135 51 164 -10 b 357 51 286 -10 336 14 l 364 51 b 486 -24 378 11 411 -24 b 621 111 549 -24 621 1 l 621 679 b 319 972 621 910 481 972 z m 331 181 b 314 110 331 122 329 110 b 297 181 300 110 297 122 l 297 618 b 314 689 297 675 300 689 b 331 618 329 689 331 675 z "},"&":{"ha":589,"x_min":0,"x_max":0,"o":"m 525 156 b 544 257 538 186 544 219 l 544 533 l 401 533 l 401 504 l 406 265 b 318 525 368 367 342 454 b 457 793 386 594 457 664 l 457 847 b 276 1071 457 1025 389 1071 b 97 847 161 1071 97 1024 l 97 793 b 136 551 97 721 111 619 b 18 306 68 481 18 431 l 18 253 b 243 -10 18 93 101 -10 l 289 -10 b 415 31 326 -10 374 4 b 515 0 450 7 493 0 l 571 0 l 571 156 z m 260 861 b 278 901 260 886 263 901 b 293 861 290 901 293 889 l 293 782 b 265 681 293 757 282 706 b 260 786 261 706 260 760 z m 186 265 l 186 299 b 210 404 186 364 201 392 b 296 165 224 328 254 242 b 186 265 213 165 186 193 z "},"¶":{"ha":635,"x_min":0,"x_max":0,"o":"m 214 1056 b 18 896 89 1056 18 982 l 18 590 b 208 431 18 504 85 431 l 224 431 l 222 0 l 397 0 l 397 1056 z m 439 1056 l 439 0 l 614 0 l 614 1056 z "},"§":{"ha":404,"x_min":0,"x_max":0,"o":"m 386 794 l 386 917 b 206 1071 386 1011 328 1071 b 18 921 96 1071 18 1024 l 18 540 b 125 360 18 449 42 415 b 219 261 176 325 219 303 l 219 157 b 201 110 219 122 215 110 b 185 157 188 110 185 122 l 185 297 l 18 297 l 18 139 b 200 -10 18 51 81 -10 b 386 139 314 -10 386 47 l 386 511 b 265 726 386 649 363 667 b 185 844 210 761 185 789 l 185 894 b 201 946 185 922 185 946 b 219 894 219 946 219 922 l 219 794 z m 185 574 l 185 608 b 219 551 206 592 219 575 l 219 503 b 185 574 196 525 185 546 z "},"©":{"ha":639,"x_min":0,"x_max":0,"o":"m 18 778 l 18 283 b 319 -10 18 53 160 -10 b 621 283 481 -10 621 53 l 621 778 b 319 1071 621 1008 481 1071 b 18 778 160 1071 18 1008 z m 93 778 b 319 997 93 943 182 997 b 546 778 458 997 546 943 l 546 283 b 319 64 546 118 458 64 b 93 283 182 64 93 118 z m 322 119 b 508 278 436 119 508 181 l 508 504 l 342 504 l 342 278 b 324 239 342 251 339 239 b 307 278 310 239 307 251 l 307 779 b 324 824 307 811 310 824 b 342 779 339 824 342 811 l 342 568 l 508 568 l 508 764 b 322 943 508 883 436 943 b 140 764 208 943 140 882 l 140 278 b 322 119 140 182 208 119 z "},"®":{"ha":639,"x_min":0,"x_max":0,"o":"m 18 778 l 18 283 b 319 -10 18 53 160 -10 b 621 283 481 -10 621 53 l 621 778 b 319 1071 621 1008 481 1071 b 18 778 160 1071 18 1008 z m 93 778 b 319 997 93 943 182 997 b 546 778 458 997 546 943 l 546 283 b 319 64 546 118 458 64 b 93 283 182 64 93 118 z m 178 114 l 314 114 l 314 433 b 328 458 314 453 317 458 b 343 433 339 458 343 453 l 343 213 b 350 114 343 142 344 126 l 483 114 l 483 124 b 475 165 476 129 475 136 l 475 433 b 404 533 475 501 439 533 l 400 533 l 400 536 l 404 536 b 475 654 439 536 475 604 l 475 794 b 335 940 475 879 426 940 l 178 940 z m 314 594 l 314 817 l 325 817 b 342 786 338 817 342 807 l 342 624 b 325 594 342 603 338 594 z "},"™":{"ha":450,"x_min":0,"x_max":0,"o":"m 201 1051 l 14 1051 l 14 978 l 67 978 l 67 568 l 147 568 l 147 978 l 201 978 z m 356 1051 l 326 817 l 322 817 b 293 1051 313 894 301 974 l 213 1051 l 213 568 l 286 568 l 286 811 l 289 811 b 304 568 294 731 299 650 l 344 568 b 360 811 350 650 354 731 l 363 811 l 363 568 l 436 568 l 436 1051 z "},"°":{"ha":279,"x_min":0,"x_max":0,"o":"m 140 807 b 261 939 213 807 261 860 b 140 1071 261 1018 213 1071 b 18 939 67 1071 18 1018 b 140 807 18 860 67 807 z m 140 871 b 89 939 110 871 89 897 b 140 1007 89 981 110 1007 b 190 939 171 1007 190 981 b 140 871 190 897 171 871 z "},"|":{"ha":189,"x_min":0,"x_max":0,"o":"m 18 1083 l 18 -306 l 171 -306 l 171 1083 z "},"¦":{"ha":189,"x_min":0,"x_max":0,"o":"m 18 504 l 171 504 l 171 944 l 18 944 z m 18 -215 l 171 -215 l 171 226 l 18 226 z "},"†":{"ha":453,"x_min":0,"x_max":0,"o":"m 435 850 l 303 850 l 303 1083 l 150 1083 l 150 850 l 18 850 l 18 724 l 150 724 l 150 -306 l 303 -306 l 303 724 l 435 724 z "},"‡":{"ha":453,"x_min":0,"x_max":0,"o":"m 435 724 l 435 850 l 303 850 l 303 1083 l 150 1083 l 150 850 l 18 850 l 18 724 l 150 724 l 150 433 l 18 433 l 18 307 l 150 307 l 150 -306 l 303 -306 l 303 307 l 435 307 l 435 433 l 303 433 l 303 724 z "},"^":{"ha":457,"x_min":0,"x_max":0,"o":"m 18 651 l 163 651 l 225 854 l 231 854 l 296 651 l 439 651 l 274 1056 l 183 1056 z "},"̈":{"ha":0,"x_min":0,"x_max":0,"o":"m -312 954 l -312 833 l -194 833 l -194 954 z m -165 954 l -165 833 l -47 833 l -47 954 z "},"̇":{"ha":0,"x_min":0,"x_max":0,"o":"m -200 990 l -200 833 l -24 833 l -24 990 z "},"̀":{"ha":0,"x_min":0,"x_max":0,"o":"m -81 850 l 14 850 l -78 1022 l -250 1022 z "},"́":{"ha":0,"x_min":0,"x_max":0,"o":"m -156 850 l 14 1022 l -158 1022 l -250 850 z "},"̋":{"ha":0,"x_min":0,"x_max":0,"o":"m -336 850 l -167 1022 l -339 1022 l -431 850 z m -156 850 l 14 1022 l -158 1022 l -250 850 z "},"̂":{"ha":0,"x_min":0,"x_max":0,"o":"m 0 850 l -92 1022 l -240 1022 l -332 850 l -237 850 l -165 932 l -94 850 z "},"̌":{"ha":0,"x_min":0,"x_max":0,"o":"m 18 1036 l -76 1036 l -147 954 l -219 1036 l -314 1036 l -222 864 l -74 864 z "},"̆":{"ha":0,"x_min":0,"x_max":0,"o":"m -108 1008 b -169 943 -108 969 -133 943 b -232 1008 -207 943 -232 969 l -331 1008 b -169 861 -331 918 -269 863 b -10 1008 -71 860 -10 917 z "},"̊":{"ha":0,"x_min":0,"x_max":0,"o":"m -139 840 b -42 939 -81 842 -42 881 b -139 1038 -42 997 -81 1036 b -237 939 -199 1036 -237 997 b -139 840 -237 881 -199 842 z m -139 901 b -174 939 -160 901 -174 917 b -139 976 -174 961 -160 976 b -106 939 -119 976 -106 961 b -139 901 -106 917 -119 901 z "},"̃":{"ha":0,"x_min":0,"x_max":0,"o":"m -92 986 l -92 975 b -118 949 -92 961 -100 949 b -225 988 -149 949 -169 988 b -307 875 -289 988 -307 936 l -307 861 l -225 861 l -225 872 b -201 901 -225 888 -217 901 b -90 858 -174 901 -149 858 b -10 972 -26 858 -10 910 l -10 986 z "},"̄":{"ha":0,"x_min":0,"x_max":0,"o":"m -274 974 l -274 861 l -10 861 l -10 974 z "},"̒":{"ha":0,"x_min":0,"x_max":0,"o":"m -78 1008 l -14 1181 l -97 1181 l -169 1019 l -169 836 l -12 836 l -12 1008 z "},"̦":{"ha":0,"x_min":0,"x_max":0,"o":"m -169 -22 l -169 -194 l -104 -194 l -168 -367 l -85 -367 l -12 -206 l -12 -22 z "},"̧":{"ha":0,"x_min":0,"x_max":0,"o":"m -79 13 l -154 -164 l -7 -164 l 24 13 z "},"̨":{"ha":0,"x_min":0,"x_max":0,"o":"m -32 -304 l -32 -206 b -115 -144 -89 -206 -115 -181 b -14 0 -115 -107 -78 -50 l -78 0 b -207 -172 -154 -43 -207 -97 b -32 -304 -207 -257 -151 -304 z "},"̵":{"ha":0,"x_min":0,"x_max":0,"o":"m -28 453 l -335 453 l -335 315 l -28 315 z "},"̶":{"ha":0,"x_min":0,"x_max":0,"o":"m -28 453 l -474 453 l -474 315 l -28 315 z "},"̷":{"ha":0,"x_min":0,"x_max":0,"o":"m -64 672 l -64 843 l -351 672 l -351 506 z "},"̸":{"ha":0,"x_min":0,"x_max":0,"o":"m -511 0 l -454 0 l -90 1054 l -147 1054 z "},"´":{"ha":236,"x_min":0,"x_max":0,"o":"m 81 850 l 250 1022 l 78 1022 l -14 850 z "},"˘":{"ha":340,"x_min":0,"x_max":0,"o":"m 232 1008 b 171 943 232 969 207 943 b 108 1008 133 943 108 969 l 10 1008 b 171 861 10 918 71 863 b 331 1008 269 860 331 917 z "},"ˇ":{"ha":314,"x_min":0,"x_max":0,"o":"m 332 1036 l 238 1036 l 167 954 l 94 1036 l 0 1036 l 92 864 l 240 864 z "},"¸":{"ha":132,"x_min":0,"x_max":0,"o":"m 53 13 l -22 -164 l 125 -164 l 156 13 z "},"ˆ":{"ha":332,"x_min":0,"x_max":0,"o":"m 332 850 l 240 1022 l 92 1022 l 0 850 l 94 850 l 167 932 l 238 850 z "},"¨":{"ha":360,"x_min":0,"x_max":0,"o":"m 47 954 l 47 833 l 165 833 l 165 954 z m 194 954 l 194 833 l 313 833 l 313 954 z "},"˙":{"ha":222,"x_min":0,"x_max":0,"o":"m 22 990 l 22 833 l 199 833 l 199 990 z "},"`":{"ha":236,"x_min":0,"x_max":0,"o":"m 156 850 l 250 850 l 158 1022 l -14 1022 z "},"˝":{"ha":417,"x_min":0,"x_max":0,"o":"m 81 850 l 250 1022 l 78 1022 l -14 850 z m 261 850 l 431 1022 l 258 1022 l 167 850 z "},"¯":{"ha":283,"x_min":0,"x_max":0,"o":"m 10 974 l 10 861 l 274 861 l 274 974 z "},"˛":{"ha":833,"x_min":0,"x_max":0,"o":"m 189 -304 l 189 -206 b 106 -144 132 -206 106 -181 b 207 0 106 -107 143 -50 l 143 0 b 14 -172 67 -43 14 -97 b 189 -304 14 -257 69 -304 z "},"˚":{"ha":279,"x_min":0,"x_max":0,"o":"m 140 840 b 238 939 199 842 238 881 b 140 1038 238 997 199 1036 b 42 939 81 1036 42 997 b 140 840 42 881 81 842 z m 140 901 b 106 939 119 901 106 917 b 140 976 106 961 119 976 b 174 939 160 976 174 961 b 140 901 174 917 160 901 z "},"˜":{"ha":317,"x_min":0,"x_max":0,"o":"m 225 986 l 225 975 b 199 949 225 961 217 949 b 92 988 168 949 147 988 b 10 875 28 988 10 936 l 10 861 l 92 861 l 92 872 b 115 901 92 888 100 901 b 226 858 143 901 168 858 b 307 972 290 858 307 910 l 307 986 z "}}}
